<svg width="32" height="32" viewBox="0 0 32 32" fill="none" xmlns="http://www.w3.org/2000/svg">
<path d="M5 15C4.44772 15 4 15.4477 4 16C4 16.5523 4.44772 17 5 17V15ZM26 17C26.5523 17 27 16.5523 27 16C27 15.4477 26.5523 15 26 15V17ZM27 16L27.7071 16.7071C28.0976 16.3166 28.0976 15.6834 27.7071 15.2929L27 16ZM19.7071 7.29289C19.3166 6.90237 18.6834 6.90237 18.2929 7.29289C17.9024 7.68342 17.9024 8.31658 18.2929 8.70711L19.7071 7.29289ZM18.2929 23.2929C17.9024 23.6834 17.9024 24.3166 18.2929 24.7071C18.6834 25.0976 19.3166 25.0976 19.7071 24.7071L18.2929 23.2929ZM5 17H26V15H5V17ZM27.7071 15.2929L19.7071 7.29289L18.2929 8.70711L26.2929 16.7071L27.7071 15.2929ZM26.2929 15.2929L18.2929 23.2929L19.7071 24.7071L27.7071 16.7071L26.2929 15.2929Z" fill="white"/>
</svg>
