<svg width="31" height="30" viewBox="0 0 31 30" fill="none" xmlns="http://www.w3.org/2000/svg">
<g style="mix-blend-mode:luminosity" opacity="0.8">
<path d="M20.3423 29.425H20.2053L20.0683 29.2875V28.4625V25.025C20.0683 24.0625 19.9303 23.2375 19.5173 22.55C22.6803 22 26.1183 20.35 26.1183 14.1625C26.1183 12.5125 25.5683 11 24.6053 9.76252C24.8803 8.93752 25.0173 7.42499 24.3303 5.5L23.9183 5.0875C23.9183 5.0875 23.6433 4.95 23.3683 4.95C22.5433 4.95 21.3053 5.225 19.2423 6.6C18.1423 6.4625 16.9053 6.1875 15.5303 6.1875C14.1553 6.1875 12.9173 6.325 11.6803 6.6C9.75527 5.3625 8.38027 5.0875 7.55527 5.0875C7.28027 5.0875 7.14328 5.225 7.00528 5.225C6.86828 5.225 6.59229 5.5 6.59229 5.6375C5.90529 7.5625 6.04327 9.07502 6.31827 9.90002C5.35527 11.1375 4.80527 12.65 4.80527 14.3C4.80527 20.35 8.38027 22 11.4053 22.6875C11.2683 22.9625 11.1303 23.375 10.9923 23.7875C10.7183 23.925 10.3053 24.0625 9.75528 24.0625C9.20528 24.0625 8.65528 23.925 8.24228 23.5125L8.10529 23.375C7.96829 23.2375 7.96826 23.1 7.83026 23.1L7.69327 22.9625L7.55527 22.825C7.55527 22.6875 6.45527 21.0375 4.53027 20.9C3.84227 20.9 3.29327 21.175 3.15527 21.5875C2.88027 22.275 3.70529 22.825 4.11829 23.1C4.11829 23.1 4.94228 23.5125 5.49228 25.025C5.76728 25.9875 7.00528 27.775 9.89328 27.775H10.8553V29.7L10.7183 29.8375C10.7183 29.8375 10.5803 29.8375 10.7183 29.8375C4.53026 27.3625 0.405273 21.5875 0.405273 15.125C0.405273 6.7375 7.14327 0 15.5303 0C23.9183 0 30.6553 6.7375 30.6553 15.125C30.6553 21.5875 26.5303 27.3625 20.3423 29.425Z" fill="#F7F7F7"/>
</g>
</svg>
