<svg width="37" height="35" viewBox="0 0 37 35" fill="none" xmlns="http://www.w3.org/2000/svg">
<g style="mix-blend-mode:luminosity" opacity="0.8">
<path d="M24.1408 34.1633H23.981L23.8213 34.0037V33.0459V29.0548C23.8213 27.9373 23.6604 26.9795 23.179 26.1813C26.8665 25.5427 30.8747 23.627 30.8747 16.4431C30.8747 14.5274 30.2335 12.7714 29.1108 11.3346C29.4314 10.3767 29.5911 8.62064 28.7901 6.38567L28.3098 5.90674C28.3098 5.90674 27.9892 5.7471 27.6686 5.7471C26.7068 5.7471 25.2635 6.06639 22.8584 7.6628C21.5759 7.50316 20.1338 7.18388 18.5308 7.18388C16.9277 7.18388 15.4844 7.34352 14.0423 7.6628C11.798 6.22603 10.195 5.90674 9.2332 5.90674C8.91259 5.90674 8.75289 6.06639 8.592 6.06639C8.43228 6.06639 8.11052 6.38567 8.11052 6.54531C7.30958 8.78029 7.47045 10.5364 7.79106 11.4942C6.66835 12.931 6.02714 14.6871 6.02714 16.6028C6.02714 23.627 10.195 25.5427 13.7217 26.3409C13.562 26.6602 13.4011 27.1391 13.2402 27.618C12.9208 27.7777 12.4393 27.9373 11.7981 27.9373C11.1568 27.9373 10.5156 27.7777 10.0341 27.2988L9.87443 27.1391C9.71471 26.9795 9.71468 26.8198 9.55379 26.8198L9.39408 26.6602L9.2332 26.5005C9.2332 26.3409 7.95078 24.4252 5.70654 24.2656C4.90445 24.2656 4.2644 24.5848 4.10352 25.0638C3.78291 25.862 4.74474 26.5005 5.22623 26.8198C5.22623 26.8198 6.18687 27.2988 6.82809 29.0548C7.14869 30.1723 8.592 32.2477 11.9589 32.2477H13.0805V34.4826L12.9207 34.6423C12.9207 34.6423 12.7599 34.6423 12.9207 34.6423C5.70653 31.7687 0.897461 25.0638 0.897461 17.5606C0.897461 7.82244 8.75288 0 18.5308 0C28.3098 0 36.1641 7.82244 36.1641 17.5606C36.1641 25.0638 31.355 31.7687 24.1408 34.1633Z" fill="#010101"/>
</g>
</svg>
