<svg width="32" height="32" viewBox="0 0 32 32" fill="none" xmlns="http://www.w3.org/2000/svg">
<path d="M5 16L4.01942 15.8039C4.0065 15.8685 4 15.9341 4 16H5ZM27 16H28C28 15.9341 27.9935 15.8685 27.9806 15.8039L27 16ZM21.5 16V15C21.0535 15 20.6611 15.296 20.5385 15.7253L21.5 16ZM10.5 16L11.4615 15.7253C11.3389 15.296 10.9465 15 10.5 15V16ZM26.9806 10.8039C26.8723 10.2623 26.3454 9.91111 25.8039 10.0194C25.2623 10.1277 24.9111 10.6546 25.0194 11.1961L26.9806 10.8039ZM4 19.5C4 20.0523 4.44772 20.5 5 20.5C5.55228 20.5 6 20.0523 6 19.5H4ZM6.98058 11.1961C7.08889 10.6546 6.73768 10.1277 6.19612 10.0194C5.65456 9.91111 5.12773 10.2623 5.01942 10.8039L6.98058 11.1961ZM13.5 8C12.9477 8 12.5 8.44772 12.5 9C12.5 9.55228 12.9477 10 13.5 10V8ZM18.5 10C19.0523 10 19.5 9.55228 19.5 9C19.5 8.44772 19.0523 8 18.5 8V10ZM13.5 12C12.9477 12 12.5 12.4477 12.5 13C12.5 13.5523 12.9477 14 13.5 14V12ZM18.5 14C19.0523 14 19.5 13.5523 19.5 13C19.5 12.4477 19.0523 12 18.5 12V14ZM8.5 13C8.5 13.5523 8.94772 14 9.5 14C10.0523 14 10.5 13.5523 10.5 13H8.5ZM9.5 5V4C8.94772 4 8.5 4.44772 8.5 5H9.5ZM22.5 5H23.5C23.5 4.44772 23.0523 4 22.5 4V5ZM21.5 13C21.5 13.5523 21.9477 14 22.5 14C23.0523 14 23.5 13.5523 23.5 13H21.5ZM27 16C26 16 26 16 26 16.0001C26 16.0001 26 16.0002 26 16.0003C26 16.0004 26 16.0005 26 16.0007C26 16.0008 26 16.001 26 16.0012C26 16.0014 26 16.0016 26 16.0018C26 16.0021 26 16.0024 26 16.0027C26 16.003 26 16.0033 26 16.0036C26 16.004 26 16.0043 26 16.0047C26 16.0051 26 16.0055 26 16.006C26 16.0064 26 16.0069 26 16.0074C26 16.0078 26 16.0084 26 16.0089C26 16.0094 26 16.01 26 16.0106C26 16.0111 26 16.0118 26 16.0124C26 16.013 26 16.0137 26 16.0143C26 16.015 26 16.0157 26 16.0164C26 16.0172 26 16.0179 26 16.0187C26 16.0195 26 16.0203 26 16.0211C26 16.0219 26 16.0227 26 16.0236C26 16.0245 26 16.0254 26 16.0263C26 16.0272 26 16.0281 26 16.0291C26 16.03 26 16.031 26 16.032C26 16.033 26 16.034 26 16.0351C26 16.0361 26 16.0372 26 16.0383C26 16.0394 26 16.0405 26 16.0417C26 16.0428 26 16.044 26 16.0452C26 16.0463 26 16.0475 26 16.0488C26 16.05 26 16.0513 26 16.0525C26 16.0538 26 16.0551 26 16.0564C26 16.0578 26 16.0591 26 16.0605C26 16.0618 26 16.0632 26 16.0646C26 16.066 26 16.0675 26 16.0689C26 16.0704 26 16.0719 26 16.0734C26 16.0749 26 16.0764 26 16.0779C26 16.0795 26 16.081 26 16.0826C26 16.0842 26 16.0858 26 16.0874C26 16.0891 26 16.0907 26 16.0924C26 16.0941 26 16.0958 26 16.0975C26 16.0992 26 16.101 26 16.1027C26 16.1045 26 16.1063 26 16.1081C26 16.1099 26 16.1117 26 16.1135C26 16.1154 26 16.1172 26 16.1191C26 16.121 26 16.1229 26 16.1249C26 16.1268 26 16.1288 26 16.1307C26 16.1327 26 16.1347 26 16.1367C26 16.1387 26 16.1408 26 16.1428C26 16.1449 26 16.147 26 16.1491C26 16.1512 26 16.1533 26 16.1554C26 16.1576 26 16.1597 26 16.1619C26 16.1641 26 16.1663 26 16.1685C26 16.1707 26 16.173 26 16.1753C26 16.1775 26 16.1798 26 16.1821C26 16.1844 26 16.1867 26 16.1891C26 16.1914 26 16.1938 26 16.1962C26 16.1986 26 16.201 26 16.2034C26 16.2058 26 16.2083 26 16.2108C26 16.2132 26 16.2157 26 16.2182C26 16.2207 26 16.2233 26 16.2258C26 16.2284 26 16.2309 26 16.2335C26 16.2361 26 16.2387 26 16.2413C26 16.244 26 16.2466 26 16.2493C26 16.252 26 16.2546 26 16.2573C26 16.2601 26 16.2628 26 16.2655C26 16.2683 26 16.271 26 16.2738C26 16.2766 26 16.2794 26 16.2822C26 16.285 26 16.2879 26 16.2908C26 16.2936 26 16.2965 26 16.2994C26 16.3023 26 16.3052 26 16.3082C26 16.3111 26 16.314 26 16.317C26 16.32 26 16.323 26 16.326C26 16.329 26 16.3321 26 16.3351C26 16.3382 26 16.3412 26 16.3443C26 16.3474 26 16.3505 26 16.3536C26 16.3568 26 16.3599 26 16.3631C26 16.3662 26 16.3694 26 16.3726C26 16.3758 26 16.379 26 16.3823C26 16.3855 26 16.3888 26 16.392C26 16.3953 26 16.3986 26 16.4019C26 16.4052 26 16.4086 26 16.4119C26 16.4153 26 16.4186 26 16.422C26 16.4254 26 16.4288 26 16.4322C26 16.4356 26 16.4391 26 16.4425C26 16.446 26 16.4494 26 16.4529C26 16.4564 26 16.4599 26 16.4635C26 16.467 26 16.4705 26 16.4741C26 16.4776 26 16.4812 26 16.4848C26 16.4884 26 16.492 26 16.4957C26 16.4993 26 16.5029 26 16.5066C26 16.5103 26 16.514 26 16.5177C26 16.5214 26 16.5251 26 16.5288C26 16.5325 26 16.5363 26 16.5401C26 16.5438 26 16.5476 26 16.5514C26 16.5552 26 16.5591 26 16.5629C26 16.5667 26 16.5706 26 16.5745C26 16.5783 26 16.5822 26 16.5861C26 16.59 26 16.5939 26 16.5979C26 16.6018 26 16.6058 26 16.6097C26 16.6137 26 16.6177 26 16.6217C26 16.6257 26 16.6297 26 16.6338C26 16.6378 26 16.6419 26 16.6459C26 16.65 26 16.6541 26 16.6582C26 16.6623 26 16.6664 26 16.6705C26 16.6747 26 16.6788 26 16.683C26 16.6872 26 16.6913 26 16.6955C26 16.6997 26 16.704 26 16.7082C26 16.7124 26 16.7167 26 16.7209C26 16.7252 26 16.7295 26 16.7338C26 16.7381 26 16.7424 26 16.7467C26 16.751 26 16.7554 26 16.7597C26 16.7641 26 16.7684 26 16.7728C26 16.7772 26 16.7816 26 16.786C26 16.7905 26 16.7949 26 16.7993C26 16.8038 26 16.8082 26 16.8127C26 16.8172 26 16.8217 26 16.8262C26 16.8307 26 16.8352 26 16.8398C26 16.8443 26 16.8489 26 16.8535C26 16.858 26 16.8626 26 16.8672C26 16.8718 26 16.8764 26 16.881C26 16.8857 26 16.8903 26 16.895C26 16.8996 26 16.9043 26 16.909C26 16.9137 26 16.9184 26 16.9231C26 16.9278 26 16.9326 26 16.9373C26 16.942 26 16.9468 26 16.9516C26 16.9564 26 16.9611 26 16.966C26 16.9708 26 16.9756 26 16.9804C26 16.9852 26 16.9901 26 16.9949C26 16.9998 26 17.0047 26 17.0096C26 17.0145 26 17.0194 26 17.0243C26 17.0292 26 17.0341 26 17.0391C26 17.044 26 17.049 26 17.0539C26 17.0589 26 17.0639 26 17.0689C26 17.0739 26 17.0789 26 17.0839C26 17.089 26 17.094 26 17.099C26 17.1041 26 17.1092 26 17.1142C26 17.1193 26 17.1244 26 17.1295C26 17.1346 26 17.1398 26 17.1449C26 17.15 26 17.1552 26 17.1603C26 17.1655 26 17.1707 26 17.1758C26 17.181 26 17.1862 26 17.1914C26 17.1967 26 17.2019 26 17.2071C26 17.2124 26 17.2176 26 17.2229C26 17.2281 26 17.2334 26 17.2387C26 17.244 26 17.2493 26 17.2546C26 17.2599 26 17.2652 26 17.2706C26 17.2759 26 17.2813 26 17.2866C26 17.292 26 17.2974 26 17.3028C26 17.3082 26 17.3136 26 17.319C26 17.3244 26 17.3298 26 17.3353C26 17.3407 26 17.3461 26 17.3516C26 17.3571 26 17.3625 26 17.368C26 17.3735 26 17.379 26 17.3845C26 17.39 26 17.3956 26 17.4011C26 17.4066 26 17.4122 26 17.4177C26 17.4233 26 17.4289 26 17.4344C26 17.44 26 17.4456 26 17.4512C26 17.4568 26 17.4624 26 17.4681C26 17.4737 26 17.4793 26 17.485C26 17.4906 26 17.4963 26 17.502C26 17.5077 26 17.5133 26 17.519C26 17.5247 26 17.5304 26 17.5362C26 17.5419 26 17.5476 26 17.5533C26 17.5591 26 17.5648 26 17.5706C26 17.5764 26 17.5821 26 17.5879C26 17.5937 26 17.5995 26 17.6053C26 17.6111 26 17.6169 26 17.6228C26 17.6286 26 17.6344 26 17.6403C26 17.6461 26 17.652 26 17.6579C26 17.6637 26 17.6696 26 17.6755C26 17.6814 26 17.6873 26 17.6932C26 17.6991 26 17.7051 26 17.711C26 17.7169 26 17.7229 26 17.7288C26 17.7348 26 17.7407 26 17.7467C26 17.7527 26 17.7587 26 17.7647C26 17.7707 26 17.7767 26 17.7827C26 17.7887 26 17.7947 26 17.8008C26 17.8068 26 17.8128 26 17.8189C26 17.8249 26 17.831 26 17.8371C26 17.8432 26 17.8492 26 17.8553C26 17.8614 26 17.8675 26 17.8736C26 17.8798 26 17.8859 26 17.892C26 17.8981 26 17.9043 26 17.9104C26 17.9166 26 17.9227 26 17.9289C26 17.9351 26 17.9413 26 17.9474C26 17.9536 26 17.9598 26 17.966C26 17.9722 26 17.9785 26 17.9847C26 17.9909 26 17.9971 26 18.0034C26 18.0096 26 18.0159 26 18.0221C26 18.0284 26 18.0347 26 18.0409C26 18.0472 26 18.0535 26 18.0598C26 18.0661 26 18.0724 26 18.0787C26 18.085 26 18.0913 26 18.0977C26 18.104 26 18.1103 26 18.1167C26 18.123 26 18.1294 26 18.1357C26 18.1421 26 18.1485 26 18.1549C26 18.1612 26 18.1676 26 18.174C26 18.1804 26 18.1868 26 18.1932C26 18.1996 26 18.2061 26 18.2125C26 18.2189 26 18.2254 26 18.2318C26 18.2382 26 18.2447 26 18.2512C26 18.2576 26 18.2641 26 18.2706C26 18.277 26 18.2835 26 18.29C26 18.2965 26 18.303 26 18.3095C26 18.316 26 18.3225 26 18.329C26 18.3356 26 18.3421 26 18.3486C26 18.3552 26 18.3617 26 18.3683C26 18.3748 26 18.3814 26 18.3879C26 18.3945 26 18.4011 26 18.4077C26 18.4142 26 18.4208 26 18.4274C26 18.434 26 18.4406 26 18.4472C26 18.4538 26 18.4604 26 18.4671C26 18.4737 26 18.4803 26 18.487C26 18.4936 26 18.5002 26 18.5069C26 18.5135 26 18.5202 26 18.5268C26 18.5335 26 18.5402 26 18.5469C26 18.5535 26 18.5602 26 18.5669C26 18.5736 26 18.5803 26 18.587C26 18.5937 26 18.6004 26 18.6071C26 18.6138 26 18.6205 26 18.6273C26 18.634 26 18.6407 26 18.6475C26 18.6542 26 18.661 26 18.6677C26 18.6745 26 18.6812 26 18.688C26 18.6947 26 18.7015 26 18.7083C26 18.7151 26 18.7218 26 18.7286C26 18.7354 26 18.7422 26 18.749C26 18.7558 26 18.7626 26 18.7694C26 18.7762 26 18.783 26 18.7899C26 18.7967 26 18.8035 26 18.8103C26 18.8172 26 18.824 26 18.8308C26 18.8377 26 18.8445 26 18.8514C26 18.8582 26 18.8651 26 18.872C26 18.8788 26 18.8857 26 18.8926C26 18.8994 26 18.9063 26 18.9132C26 18.9201 26 18.927 26 18.9339C26 18.9408 26 18.9477 26 18.9546C26 18.9615 26 18.9684 26 18.9753C26 18.9822 26 18.9891 26 18.996C26 19.003 26 19.0099 26 19.0168C26 19.0237 26 19.0307 26 19.0376C26 19.0446 26 19.0515 26 19.0585C26 19.0654 26 19.0724 26 19.0793C26 19.0863 26 19.0932 26 19.1002C26 19.1072 26 19.1141 26 19.1211C26 19.1281 26 19.1351 26 19.1421C26 19.149 26 19.156 26 19.163C26 19.17 26 19.177 26 19.184C26 19.191 26 19.198 26 19.205C26 19.212 26 19.219 26 19.226C26 19.2331 26 19.2401 26 19.2471C26 19.2541 26 19.2611 26 19.2682C26 19.2752 26 19.2822 26 19.2893C26 19.2963 26 19.3033 26 19.3104C26 19.3174 26 19.3245 26 19.3315C26 19.3386 26 19.3456 26 19.3527C26 19.3597 26 19.3668 26 19.3739C26 19.3809 26 19.388 26 19.3951C26 19.4021 26 19.4092 26 19.4163C26 19.4233 26 19.4304 26 19.4375C26 19.4446 26 19.4517 26 19.4587C26 19.4658 26 19.4729 26 19.48C26 19.4871 26 19.4942 26 19.5013C26 19.5084 26 19.5155 26 19.5226C26 19.5297 26 19.5368 26 19.5439C26 19.551 26 19.5581 26 19.5652C26 19.5723 26 19.5795 26 19.5866C26 19.5937 26 19.6008 26 19.6079C26 19.615 26 19.6222 26 19.6293C26 19.6364 26 19.6435 26 19.6507C26 19.6578 26 19.6649 26 19.6721C26 19.6792 26 19.6863 26 19.6935C26 19.7006 26 19.7077 26 19.7149C26 19.722 26 19.7292 26 19.7363C26 19.7435 26 19.7506 26 19.7577C26 19.7649 26 19.772 26 19.7792C26 19.7863 26 19.7935 26 19.8006C26 19.8078 26 19.815 26 19.8221C26 19.8293 26 19.8364 26 19.8436C26 19.8507 26 19.8579 26 19.8651C26 19.8722 26 19.8794 26 19.8865C26 19.8937 26 19.9009 26 19.908C26 19.9152 26 19.9224 26 19.9295C26 19.9367 26 19.9439 26 19.951C26 19.9582 26 19.9654 26 19.9725C26 19.9797 26 19.9869 26 19.994C26 20.0012 26 20.0084 26 20.0156C26 20.0227 26 20.0299 26 20.0371C26 20.0442 26 20.0514 26 20.0586C26 20.0658 26 20.0729 26 20.0801C26 20.0873 26 20.0945 26 20.1016C26 20.1088 26 20.116 26 20.1232C26 20.1303 26 20.1375 26 20.1447C26 20.1519 26 20.159 26 20.1662C26 20.1734 26 20.1806 26 20.1877C26 20.1949 26 20.2021 26 20.2093C26 20.2164 26 20.2236 26 20.2308C26 20.238 26 20.2451 26 20.2523C26 20.2595 26 20.2667 26 20.2738C26 20.281 26 20.2882 26 20.2954C26 20.3025 26 20.3097 26 20.3169C26 20.324 26 20.3312 26 20.3384C26 20.3456 26 20.3527 26 20.3599C26 20.3671 26 20.3742 26 20.3814C26 20.3886 26 20.3957 26 20.4029C26 20.41 26 20.4172 26 20.4244C26 20.4315 26 20.4387 26 20.4459C26 20.453 26 20.4602 26 20.4673C26 20.4745 26 20.4816 26 20.4888C26 20.496 26 20.5031 26 20.5103C26 20.5174 26 20.5246 26 20.5317C26 20.5389 26 20.546 26 20.5532C26 20.5603 26 20.5674 26 20.5746C26 20.5817 26 20.5889 26 20.596C26 20.6031 26 20.6103 26 20.6174C26 20.6246 26 20.6317 26 20.6388C26 20.646 26 20.6531 26 20.6602C26 20.6673 26 20.6745 26 20.6816C26 20.6887 26 20.6958 26 20.703C26 20.7101 26 20.7172 26 20.7243C26 20.7314 26 20.7385 26 20.7456C26 20.7528 26 20.7599 26 20.767C26 20.7741 26 20.7812 26 20.7883C26 20.7954 26 20.8025 26 20.8096C26 20.8167 26 20.8238 26 20.8308C26 20.8379 26 20.845 26 20.8521C26 20.8592 26 20.8663 26 20.8734C26 20.8804 26 20.8875 26 20.8946C26 20.9017 26 20.9087 26 20.9158C26 20.9229 26 20.9299 26 20.937C26 20.944 26 20.9511 26 20.9582C26 20.9652 26 20.9723 26 20.9793C26 20.9864 26 20.9934 26 21.0004C26 21.0075 26 21.0145 26 21.0216C26 21.0286 26 21.0356 26 21.0427C26 21.0497 26 21.0567 26 21.0637C26 21.0707 26 21.0778 26 21.0848C26 21.0918 26 21.0988 26 21.1058C26 21.1128 26 21.1198 26 21.1268C26 21.1338 26 21.1408 26 21.1478C26 21.1548 26 21.1618 26 21.1687C26 21.1757 26 21.1827 26 21.1897C26 21.1966 26 21.2036 26 21.2106C26 21.2175 26 21.2245 26 21.2315C26 21.2384 26 21.2454 26 21.2523C26 21.2593 26 21.2662 26 21.2731C26 21.2801 26 21.287 26 21.2939C26 21.3009 26 21.3078 26 21.3147C26 21.3216 26 21.3286 26 21.3355C26 21.3424 26 21.3493 26 21.3562C26 21.3631 26 21.37 26 21.3769C26 21.3838 26 21.3906 26 21.3975C26 21.4044 26 21.4113 26 21.4182C26 21.425 26 21.4319 26 21.4388C26 21.4456 26 21.4525 26 21.4593C26 21.4662 26 21.473 26 21.4799C26 21.4867 26 21.4935 26 21.5004C26 21.5072 26 21.514 26 21.5208C26 21.5276 26 21.5345 26 21.5413C26 21.5481 26 21.5549 26 21.5617C26 21.5685 26 21.5753 26 21.582C26 21.5888 26 21.5956 26 21.6024C26 21.6091 26 21.6159 26 21.6227C26 21.6294 26 21.6362 26 21.6429C26 21.6497 26 21.6564 26 21.6632C26 21.6699 26 21.6766 26 21.6834C26 21.6901 26 21.6968 26 21.7035C26 21.7102 26 21.7169 26 21.7236C26 21.7303 26 21.737 26 21.7437C26 21.7504 26 21.7571 26 21.7637C26 21.7704 26 21.7771 26 21.7837C26 21.7904 26 21.797 26 21.8037C26 21.8103 26 21.817 26 21.8236C26 21.8302 26 21.8369 26 21.8435C26 21.8501 26 21.8567 26 21.8633C26 21.8699 26 21.8765 26 21.8831C26 21.8897 26 21.8963 26 21.9029C26 21.9094 26 21.916 26 21.9226C26 21.9291 26 21.9357 26 21.9422C26 21.9488 26 21.9553 26 21.9619C26 21.9684 26 21.9749 26 21.9814C26 21.988 26 21.9945 26 22.001C26 22.0075 26 22.014 26 22.0205C26 22.0269 26 22.0334 26 22.0399C26 22.0464 26 22.0528 26 22.0593C26 22.0657 26 22.0722 26 22.0786C26 22.0851 26 22.0915 26 22.0979C26 22.1044 26 22.1108 26 22.1172C26 22.1236 26 22.13 26 22.1364C26 22.1428 26 22.1492 26 22.1555C26 22.1619 26 22.1683 26 22.1746C26 22.181 26 22.1874 26 22.1937C26 22.2 26 22.2064 26 22.2127C26 22.219 26 22.2253 26 22.2316C26 22.238 26 22.2443 26 22.2505C26 22.2568 26 22.2631 26 22.2694C26 22.2757 26 22.2819 26 22.2882C26 22.2944 26 22.3007 26 22.3069C26 22.3132 26 22.3194 26 22.3256C26 22.3318 26 22.338 26 22.3443C26 22.3505 26 22.3566 26 22.3628C26 22.369 26 22.3752 26 22.3814C26 22.3875 26 22.3937 26 22.3998C26 22.406 26 22.4121 26 22.4182C26 22.4244 26 22.4305 26 22.4366C26 22.4427 26 22.4488 26 22.4549C26 22.461 26 22.467 26 22.4731C26 22.4792 26 22.4852 26 22.4913C26 22.4973 26 22.5034 26 22.5094C26 22.5154 26 22.5215 26 22.5275C26 22.5335 26 22.5395 26 22.5455C26 22.5515 26 22.5575 26 22.5634C26 22.5694 26 22.5754 26 22.5813C26 22.5873 26 22.5932 26 22.5991C26 22.605 26 22.611 26 22.6169C26 22.6228 26 22.6287 26 22.6346C26 22.6405 26 22.6463 26 22.6522C26 22.6581 26 22.6639 26 22.6698C26 22.6756 26 22.6814 26 22.6873C26 22.6931 26 22.6989 26 22.7047C26 22.7105 26 22.7163 26 22.7221C26 22.7279 26 22.7336 26 22.7394C26 22.7452 26 22.7509 26 22.7566C26 22.7624 26 22.7681 26 22.7738C26 22.7795 26 22.7852 26 22.7909C26 22.7966 26 22.8023 26 22.808C26 22.8136 26 22.8193 26 22.8249C26 22.8306 26 22.8362 26 22.8418C26 22.8475 26 22.8531 26 22.8587C26 22.8643 26 22.8699 26 22.8754C26 22.881 26 22.8866 26 22.8921C26 22.8977 26 22.9032 26 22.9088C26 22.9143 26 22.9198 26 22.9253C26 22.9308 26 22.9363 26 22.9418C26 22.9473 26 22.9527 26 22.9582C26 22.9637 26 22.9691 26 22.9745C26 22.98 26 22.9854 26 22.9908C26 22.9962 26 23.0016 26 23.007C26 23.0124 26 23.0177 26 23.0231C26 23.0285 26 23.0338 26 23.0391C26 23.0445 26 23.0498 26 23.0551C26 23.0604 26 23.0657 26 23.071C26 23.0763 26 23.0815 26 23.0868C26 23.0921 26 23.0973 26 23.1025C26 23.1078 26 23.113 26 23.1182C26 23.1234 26 23.1286 26 23.1338C26 23.139 26 23.1441 26 23.1493C26 23.1544 26 23.1596 26 23.1647C26 23.1698 26 23.1749 26 23.18C26 23.1851 26 23.1902 26 23.1953C26 23.2004 26 23.2054 26 23.2105C26 23.2155 26 23.2206 26 23.2256C26 23.2306 26 23.2356 26 23.2406C26 23.2456 26 23.2506 26 23.2555C26 23.2605 26 23.2655 26 23.2704C26 23.2753 26 23.2803 26 23.2852C26 23.2901 26 23.295 26 23.2999C26 23.3047 26 23.3096 26 23.3145C26 23.3193 26 23.3242 26 23.329C26 23.3338 26 23.3386 26 23.3434C26 23.3482 26 23.353 26 23.3578C26 23.3625 26 23.3673 26 23.372C26 23.3768 26 23.3815 26 23.3862C26 23.3909 26 23.3956 26 23.4003C26 23.405 26 23.4096 26 23.4143C26 23.4189 26 23.4236 26 23.4282C26 23.4328 26 23.4374 26 23.442C26 23.4466 26 23.4512 26 23.4558C26 23.4603 26 23.4649 26 23.4694C26 23.4739 26 23.4785 26 23.483C26 23.4875 26 23.492 26 23.4964C26 23.5009 26 23.5054 26 23.5098C26 23.5142 26 23.5187 26 23.5231C26 23.5275 26 23.5319 26 23.5363C26 23.5407 26 23.545 26 23.5494C26 23.5537 26 23.558 26 23.5624C26 23.5667 26 23.571 26 23.5753C26 23.5796 26 23.5838 26 23.5881C26 23.5923 26 23.5966 26 23.6008C26 23.605 26 23.6092 26 23.6134C26 23.6176 26 23.6218 26 23.626C26 23.6301 26 23.6343 26 23.6384C26 23.6425 26 23.6466 26 23.6507C26 23.6548 26 23.6589 26 23.663C26 23.667 26 23.6711 26 23.6751C26 23.6791 26 23.6831 26 23.6871C26 23.6911 26 23.6951 26 23.6991C26 23.703 26 23.707 26 23.7109C26 23.7149 26 23.7188 26 23.7227C26 23.7266 26 23.7304 26 23.7343C26 23.7382 26 23.742 26 23.7458C26 23.7497 26 23.7535 26 23.7573C26 23.7611 26 23.7649 26 23.7686C26 23.7724 26 23.7761 26 23.7799C26 23.7836 26 23.7873 26 23.791C26 23.7947 26 23.7984 26 23.802C26 23.8057 26 23.8093 26 23.8129C26 23.8166 26 23.8202 26 23.8238C26 23.8273 26 23.8309 26 23.8345C26 23.838 26 23.8416 26 23.8451C26 23.8486 26 23.8521 26 23.8556C26 23.8591 26 23.8625 26 23.866C26 23.8694 26 23.8728 26 23.8763C26 23.8797 26 23.8831 26 23.8864C26 23.8898 26 23.8932 26 23.8965C26 23.8998 26 23.9032 26 23.9065C26 23.9098 26 23.9131 26 23.9163C26 23.9196 26 23.9228 26 23.9261C26 23.9293 26 23.9325 26 23.9357C26 23.9389 26 23.9421 26 23.9452C26 23.9484 26 23.9515 26 23.9546C26 23.9578 26 23.9609 26 23.9639C26 23.967 26 23.9701 26 23.9731C26 23.9762 26 23.9792 26 23.9822C26 23.9852 26 23.9882 26 23.9912C26 23.9941 26 23.9971 26 24H28C28 23.9971 28 23.9941 28 23.9912C28 23.9882 28 23.9852 28 23.9822C28 23.9792 28 23.9762 28 23.9731C28 23.9701 28 23.967 28 23.9639C28 23.9609 28 23.9578 28 23.9546C28 23.9515 28 23.9484 28 23.9452C28 23.9421 28 23.9389 28 23.9357C28 23.9325 28 23.9293 28 23.9261C28 23.9228 28 23.9196 28 23.9163C28 23.9131 28 23.9098 28 23.9065C28 23.9032 28 23.8998 28 23.8965C28 23.8932 28 23.8898 28 23.8864C28 23.8831 28 23.8797 28 23.8763C28 23.8728 28 23.8694 28 23.866C28 23.8625 28 23.8591 28 23.8556C28 23.8521 28 23.8486 28 23.8451C28 23.8416 28 23.838 28 23.8345C28 23.8309 28 23.8273 28 23.8238C28 23.8202 28 23.8166 28 23.8129C28 23.8093 28 23.8057 28 23.802C28 23.7984 28 23.7947 28 23.791C28 23.7873 28 23.7836 28 23.7799C28 23.7761 28 23.7724 28 23.7686C28 23.7649 28 23.7611 28 23.7573C28 23.7535 28 23.7497 28 23.7458C28 23.742 28 23.7382 28 23.7343C28 23.7304 28 23.7266 28 23.7227C28 23.7188 28 23.7149 28 23.7109C28 23.707 28 23.703 28 23.6991C28 23.6951 28 23.6911 28 23.6871C28 23.6831 28 23.6791 28 23.6751C28 23.6711 28 23.667 28 23.663C28 23.6589 28 23.6548 28 23.6507C28 23.6466 28 23.6425 28 23.6384C28 23.6343 28 23.6301 28 23.626C28 23.6218 28 23.6176 28 23.6134C28 23.6092 28 23.605 28 23.6008C28 23.5966 28 23.5923 28 23.5881C28 23.5838 28 23.5796 28 23.5753C28 23.571 28 23.5667 28 23.5624C28 23.558 28 23.5537 28 23.5494C28 23.545 28 23.5407 28 23.5363C28 23.5319 28 23.5275 28 23.5231C28 23.5187 28 23.5142 28 23.5098C28 23.5054 28 23.5009 28 23.4964C28 23.492 28 23.4875 28 23.483C28 23.4785 28 23.4739 28 23.4694C28 23.4649 28 23.4603 28 23.4558C28 23.4512 28 23.4466 28 23.442C28 23.4374 28 23.4328 28 23.4282C28 23.4236 28 23.4189 28 23.4143C28 23.4096 28 23.405 28 23.4003C28 23.3956 28 23.3909 28 23.3862C28 23.3815 28 23.3768 28 23.372C28 23.3673 28 23.3625 28 23.3578C28 23.353 28 23.3482 28 23.3434C28 23.3386 28 23.3338 28 23.329C28 23.3242 28 23.3193 28 23.3145C28 23.3096 28 23.3047 28 23.2999C28 23.295 28 23.2901 28 23.2852C28 23.2803 28 23.2753 28 23.2704C28 23.2655 28 23.2605 28 23.2555C28 23.2506 28 23.2456 28 23.2406C28 23.2356 28 23.2306 28 23.2256C28 23.2206 28 23.2155 28 23.2105C28 23.2054 28 23.2004 28 23.1953C28 23.1902 28 23.1851 28 23.18C28 23.1749 28 23.1698 28 23.1647C28 23.1596 28 23.1544 28 23.1493C28 23.1441 28 23.139 28 23.1338C28 23.1286 28 23.1234 28 23.1182C28 23.113 28 23.1078 28 23.1025C28 23.0973 28 23.0921 28 23.0868C28 23.0815 28 23.0763 28 23.071C28 23.0657 28 23.0604 28 23.0551C28 23.0498 28 23.0445 28 23.0391C28 23.0338 28 23.0285 28 23.0231C28 23.0177 28 23.0124 28 23.007C28 23.0016 28 22.9962 28 22.9908C28 22.9854 28 22.98 28 22.9745C28 22.9691 28 22.9637 28 22.9582C28 22.9527 28 22.9473 28 22.9418C28 22.9363 28 22.9308 28 22.9253C28 22.9198 28 22.9143 28 22.9088C28 22.9032 28 22.8977 28 22.8921C28 22.8866 28 22.881 28 22.8754C28 22.8699 28 22.8643 28 22.8587C28 22.8531 28 22.8475 28 22.8418C28 22.8362 28 22.8306 28 22.8249C28 22.8193 28 22.8136 28 22.808C28 22.8023 28 22.7966 28 22.7909C28 22.7852 28 22.7795 28 22.7738C28 22.7681 28 22.7624 28 22.7566C28 22.7509 28 22.7452 28 22.7394C28 22.7336 28 22.7279 28 22.7221C28 22.7163 28 22.7105 28 22.7047C28 22.6989 28 22.6931 28 22.6873C28 22.6814 28 22.6756 28 22.6698C28 22.6639 28 22.6581 28 22.6522C28 22.6463 28 22.6405 28 22.6346C28 22.6287 28 22.6228 28 22.6169C28 22.611 28 22.605 28 22.5991C28 22.5932 28 22.5873 28 22.5813C28 22.5754 28 22.5694 28 22.5634C28 22.5575 28 22.5515 28 22.5455C28 22.5395 28 22.5335 28 22.5275C28 22.5215 28 22.5154 28 22.5094C28 22.5034 28 22.4973 28 22.4913C28 22.4852 28 22.4792 28 22.4731C28 22.467 28 22.461 28 22.4549C28 22.4488 28 22.4427 28 22.4366C28 22.4305 28 22.4244 28 22.4182C28 22.4121 28 22.406 28 22.3998C28 22.3937 28 22.3875 28 22.3814C28 22.3752 28 22.369 28 22.3628C28 22.3566 28 22.3505 28 22.3443C28 22.338 28 22.3318 28 22.3256C28 22.3194 28 22.3132 28 22.3069C28 22.3007 28 22.2944 28 22.2882C28 22.2819 28 22.2757 28 22.2694C28 22.2631 28 22.2568 28 22.2505C28 22.2443 28 22.238 28 22.2316C28 22.2253 28 22.219 28 22.2127C28 22.2064 28 22.2 28 22.1937C28 22.1874 28 22.181 28 22.1746C28 22.1683 28 22.1619 28 22.1555C28 22.1492 28 22.1428 28 22.1364C28 22.13 28 22.1236 28 22.1172C28 22.1108 28 22.1044 28 22.0979C28 22.0915 28 22.0851 28 22.0786C28 22.0722 28 22.0657 28 22.0593C28 22.0528 28 22.0464 28 22.0399C28 22.0334 28 22.0269 28 22.0205C28 22.014 28 22.0075 28 22.001C28 21.9945 28 21.988 28 21.9814C28 21.9749 28 21.9684 28 21.9619C28 21.9553 28 21.9488 28 21.9422C28 21.9357 28 21.9291 28 21.9226C28 21.916 28 21.9094 28 21.9029C28 21.8963 28 21.8897 28 21.8831C28 21.8765 28 21.8699 28 21.8633C28 21.8567 28 21.8501 28 21.8435C28 21.8369 28 21.8302 28 21.8236C28 21.817 28 21.8103 28 21.8037C28 21.797 28 21.7904 28 21.7837C28 21.7771 28 21.7704 28 21.7637C28 21.7571 28 21.7504 28 21.7437C28 21.737 28 21.7303 28 21.7236C28 21.7169 28 21.7102 28 21.7035C28 21.6968 28 21.6901 28 21.6834C28 21.6766 28 21.6699 28 21.6632C28 21.6564 28 21.6497 28 21.6429C28 21.6362 28 21.6294 28 21.6227C28 21.6159 28 21.6091 28 21.6024C28 21.5956 28 21.5888 28 21.582C28 21.5753 28 21.5685 28 21.5617C28 21.5549 28 21.5481 28 21.5413C28 21.5345 28 21.5276 28 21.5208C28 21.514 28 21.5072 28 21.5004C28 21.4935 28 21.4867 28 21.4799C28 21.473 28 21.4662 28 21.4593C28 21.4525 28 21.4456 28 21.4388C28 21.4319 28 21.425 28 21.4182C28 21.4113 28 21.4044 28 21.3975C28 21.3906 28 21.3838 28 21.3769C28 21.37 28 21.3631 28 21.3562C28 21.3493 28 21.3424 28 21.3355C28 21.3286 28 21.3216 28 21.3147C28 21.3078 28 21.3009 28 21.2939C28 21.287 28 21.2801 28 21.2731C28 21.2662 28 21.2593 28 21.2523C28 21.2454 28 21.2384 28 21.2315C28 21.2245 28 21.2175 28 21.2106C28 21.2036 28 21.1966 28 21.1897C28 21.1827 28 21.1757 28 21.1687C28 21.1618 28 21.1548 28 21.1478C28 21.1408 28 21.1338 28 21.1268C28 21.1198 28 21.1128 28 21.1058C28 21.0988 28 21.0918 28 21.0848C28 21.0778 28 21.0707 28 21.0637C28 21.0567 28 21.0497 28 21.0427C28 21.0356 28 21.0286 28 21.0216C28 21.0145 28 21.0075 28 21.0004C28 20.9934 28 20.9864 28 20.9793C28 20.9723 28 20.9652 28 20.9582C28 20.9511 28 20.944 28 20.937C28 20.9299 28 20.9229 28 20.9158C28 20.9087 28 20.9017 28 20.8946C28 20.8875 28 20.8804 28 20.8734C28 20.8663 28 20.8592 28 20.8521C28 20.845 28 20.8379 28 20.8308C28 20.8238 28 20.8167 28 20.8096C28 20.8025 28 20.7954 28 20.7883C28 20.7812 28 20.7741 28 20.767C28 20.7599 28 20.7528 28 20.7456C28 20.7385 28 20.7314 28 20.7243C28 20.7172 28 20.7101 28 20.703C28 20.6958 28 20.6887 28 20.6816C28 20.6745 28 20.6673 28 20.6602C28 20.6531 28 20.646 28 20.6388C28 20.6317 28 20.6246 28 20.6174C28 20.6103 28 20.6031 28 20.596C28 20.5889 28 20.5817 28 20.5746C28 20.5674 28 20.5603 28 20.5532C28 20.546 28 20.5389 28 20.5317C28 20.5246 28 20.5174 28 20.5103C28 20.5031 28 20.496 28 20.4888C28 20.4816 28 20.4745 28 20.4673C28 20.4602 28 20.453 28 20.4459C28 20.4387 28 20.4315 28 20.4244C28 20.4172 28 20.41 28 20.4029C28 20.3957 28 20.3886 28 20.3814C28 20.3742 28 20.3671 28 20.3599C28 20.3527 28 20.3456 28 20.3384C28 20.3312 28 20.324 28 20.3169C28 20.3097 28 20.3025 28 20.2954C28 20.2882 28 20.281 28 20.2738C28 20.2667 28 20.2595 28 20.2523C28 20.2451 28 20.238 28 20.2308C28 20.2236 28 20.2164 28 20.2093C28 20.2021 28 20.1949 28 20.1877C28 20.1806 28 20.1734 28 20.1662C28 20.159 28 20.1519 28 20.1447C28 20.1375 28 20.1303 28 20.1232C28 20.116 28 20.1088 28 20.1016C28 20.0945 28 20.0873 28 20.0801C28 20.0729 28 20.0658 28 20.0586C28 20.0514 28 20.0442 28 20.0371C28 20.0299 28 20.0227 28 20.0156C28 20.0084 28 20.0012 28 19.994C28 19.9869 28 19.9797 28 19.9725C28 19.9654 28 19.9582 28 19.951C28 19.9439 28 19.9367 28 19.9295C28 19.9224 28 19.9152 28 19.908C28 19.9009 28 19.8937 28 19.8865C28 19.8794 28 19.8722 28 19.8651C28 19.8579 28 19.8507 28 19.8436C28 19.8364 28 19.8293 28 19.8221C28 19.815 28 19.8078 28 19.8006C28 19.7935 28 19.7863 28 19.7792C28 19.772 28 19.7649 28 19.7577C28 19.7506 28 19.7435 28 19.7363C28 19.7292 28 19.722 28 19.7149C28 19.7077 28 19.7006 28 19.6935C28 19.6863 28 19.6792 28 19.6721C28 19.6649 28 19.6578 28 19.6507C28 19.6435 28 19.6364 28 19.6293C28 19.6222 28 19.615 28 19.6079C28 19.6008 28 19.5937 28 19.5866C28 19.5795 28 19.5723 28 19.5652C28 19.5581 28 19.551 28 19.5439C28 19.5368 28 19.5297 28 19.5226C28 19.5155 28 19.5084 28 19.5013C28 19.4942 28 19.4871 28 19.48C28 19.4729 28 19.4658 28 19.4587C28 19.4517 28 19.4446 28 19.4375C28 19.4304 28 19.4233 28 19.4163C28 19.4092 28 19.4021 28 19.3951C28 19.388 28 19.3809 28 19.3739C28 19.3668 28 19.3597 28 19.3527C28 19.3456 28 19.3386 28 19.3315C28 19.3245 28 19.3174 28 19.3104C28 19.3033 28 19.2963 28 19.2893C28 19.2822 28 19.2752 28 19.2682C28 19.2611 28 19.2541 28 19.2471C28 19.2401 28 19.2331 28 19.226C28 19.219 28 19.212 28 19.205C28 19.198 28 19.191 28 19.184C28 19.177 28 19.17 28 19.163C28 19.156 28 19.149 28 19.1421C28 19.1351 28 19.1281 28 19.1211C28 19.1141 28 19.1072 28 19.1002C28 19.0932 28 19.0863 28 19.0793C28 19.0724 28 19.0654 28 19.0585C28 19.0515 28 19.0446 28 19.0376C28 19.0307 28 19.0237 28 19.0168C28 19.0099 28 19.003 28 18.996C28 18.9891 28 18.9822 28 18.9753C28 18.9684 28 18.9615 28 18.9546C28 18.9477 28 18.9408 28 18.9339C28 18.927 28 18.9201 28 18.9132C28 18.9063 28 18.8994 28 18.8926C28 18.8857 28 18.8788 28 18.872C28 18.8651 28 18.8582 28 18.8514C28 18.8445 28 18.8377 28 18.8308C28 18.824 28 18.8172 28 18.8103C28 18.8035 28 18.7967 28 18.7899C28 18.783 28 18.7762 28 18.7694C28 18.7626 28 18.7558 28 18.749C28 18.7422 28 18.7354 28 18.7286C28 18.7218 28 18.7151 28 18.7083C28 18.7015 28 18.6947 28 18.688C28 18.6812 28 18.6745 28 18.6677C28 18.661 28 18.6542 28 18.6475C28 18.6407 28 18.634 28 18.6273C28 18.6205 28 18.6138 28 18.6071C28 18.6004 28 18.5937 28 18.587C28 18.5803 28 18.5736 28 18.5669C28 18.5602 28 18.5535 28 18.5469C28 18.5402 28 18.5335 28 18.5268C28 18.5202 28 18.5135 28 18.5069C28 18.5002 28 18.4936 28 18.487C28 18.4803 28 18.4737 28 18.4671C28 18.4604 28 18.4538 28 18.4472C28 18.4406 28 18.434 28 18.4274C28 18.4208 28 18.4142 28 18.4077C28 18.4011 28 18.3945 28 18.3879C28 18.3814 28 18.3748 28 18.3683C28 18.3617 28 18.3552 28 18.3486C28 18.3421 28 18.3356 28 18.329C28 18.3225 28 18.316 28 18.3095C28 18.303 28 18.2965 28 18.29C28 18.2835 28 18.277 28 18.2706C28 18.2641 28 18.2576 28 18.2512C28 18.2447 28 18.2382 28 18.2318C28 18.2254 28 18.2189 28 18.2125C28 18.2061 28 18.1996 28 18.1932C28 18.1868 28 18.1804 28 18.174C28 18.1676 28 18.1612 28 18.1549C28 18.1485 28 18.1421 28 18.1357C28 18.1294 28 18.123 28 18.1167C28 18.1103 28 18.104 28 18.0977C28 18.0913 28 18.085 28 18.0787C28 18.0724 28 18.0661 28 18.0598C28 18.0535 28 18.0472 28 18.0409C28 18.0347 28 18.0284 28 18.0221C28 18.0159 28 18.0096 28 18.0034C28 17.9971 28 17.9909 28 17.9847C28 17.9785 28 17.9722 28 17.966C28 17.9598 28 17.9536 28 17.9474C28 17.9413 28 17.9351 28 17.9289C28 17.9227 28 17.9166 28 17.9104C28 17.9043 28 17.8981 28 17.892C28 17.8859 28 17.8798 28 17.8736C28 17.8675 28 17.8614 28 17.8553C28 17.8492 28 17.8432 28 17.8371C28 17.831 28 17.8249 28 17.8189C28 17.8128 28 17.8068 28 17.8008C28 17.7947 28 17.7887 28 17.7827C28 17.7767 28 17.7707 28 17.7647C28 17.7587 28 17.7527 28 17.7467C28 17.7407 28 17.7348 28 17.7288C28 17.7229 28 17.7169 28 17.711C28 17.7051 28 17.6991 28 17.6932C28 17.6873 28 17.6814 28 17.6755C28 17.6696 28 17.6637 28 17.6579C28 17.652 28 17.6461 28 17.6403C28 17.6344 28 17.6286 28 17.6228C28 17.6169 28 17.6111 28 17.6053C28 17.5995 28 17.5937 28 17.5879C28 17.5821 28 17.5764 28 17.5706C28 17.5648 28 17.5591 28 17.5533C28 17.5476 28 17.5419 28 17.5362C28 17.5304 28 17.5247 28 17.519C28 17.5133 28 17.5077 28 17.502C28 17.4963 28 17.4906 28 17.485C28 17.4793 28 17.4737 28 17.4681C28 17.4624 28 17.4568 28 17.4512C28 17.4456 28 17.44 28 17.4344C28 17.4289 28 17.4233 28 17.4177C28 17.4122 28 17.4066 28 17.4011C28 17.3956 28 17.39 28 17.3845C28 17.379 28 17.3735 28 17.368C28 17.3625 28 17.3571 28 17.3516C28 17.3461 28 17.3407 28 17.3353C28 17.3298 28 17.3244 28 17.319C28 17.3136 28 17.3082 28 17.3028C28 17.2974 28 17.292 28 17.2866C28 17.2813 28 17.2759 28 17.2706C28 17.2652 28 17.2599 28 17.2546C28 17.2493 28 17.244 28 17.2387C28 17.2334 28 17.2281 28 17.2229C28 17.2176 28 17.2124 28 17.2071C28 17.2019 28 17.1967 28 17.1914C28 17.1862 28 17.181 28 17.1758C28 17.1707 28 17.1655 28 17.1603C28 17.1552 28 17.15 28 17.1449C28 17.1398 28 17.1346 28 17.1295C28 17.1244 28 17.1193 28 17.1142C28 17.1092 28 17.1041 28 17.099C28 17.094 28 17.089 28 17.0839C28 17.0789 28 17.0739 28 17.0689C28 17.0639 28 17.0589 28 17.0539C28 17.049 28 17.044 28 17.0391C28 17.0341 28 17.0292 28 17.0243C28 17.0194 28 17.0145 28 17.0096C28 17.0047 28 16.9998 28 16.9949C28 16.9901 28 16.9852 28 16.9804C28 16.9756 28 16.9708 28 16.966C28 16.9611 28 16.9564 28 16.9516C28 16.9468 28 16.942 28 16.9373C28 16.9326 28 16.9278 28 16.9231C28 16.9184 28 16.9137 28 16.909C28 16.9043 28 16.8996 28 16.895C28 16.8903 28 16.8857 28 16.881C28 16.8764 28 16.8718 28 16.8672C28 16.8626 28 16.858 28 16.8535C28 16.8489 28 16.8443 28 16.8398C28 16.8352 28 16.8307 28 16.8262C28 16.8217 28 16.8172 28 16.8127C28 16.8082 28 16.8038 28 16.7993C28 16.7949 28 16.7905 28 16.786C28 16.7816 28 16.7772 28 16.7728C28 16.7684 28 16.7641 28 16.7597C28 16.7554 28 16.751 28 16.7467C28 16.7424 28 16.7381 28 16.7338C28 16.7295 28 16.7252 28 16.7209C28 16.7167 28 16.7124 28 16.7082C28 16.704 28 16.6997 28 16.6955C28 16.6913 28 16.6872 28 16.683C28 16.6788 28 16.6747 28 16.6705C28 16.6664 28 16.6623 28 16.6582C28 16.6541 28 16.65 28 16.6459C28 16.6419 28 16.6378 28 16.6338C28 16.6297 28 16.6257 28 16.6217C28 16.6177 28 16.6137 28 16.6097C28 16.6058 28 16.6018 28 16.5979C28 16.5939 28 16.59 28 16.5861C28 16.5822 28 16.5783 28 16.5745C28 16.5706 28 16.5667 28 16.5629C28 16.5591 28 16.5552 28 16.5514C28 16.5476 28 16.5438 28 16.5401C28 16.5363 28 16.5325 28 16.5288C28 16.5251 28 16.5214 28 16.5177C28 16.514 28 16.5103 28 16.5066C28 16.5029 28 16.4993 28 16.4957C28 16.492 28 16.4884 28 16.4848C28 16.4812 28 16.4776 28 16.4741C28 16.4705 28 16.467 28 16.4635C28 16.4599 28 16.4564 28 16.4529C28 16.4494 28 16.446 28 16.4425C28 16.4391 28 16.4356 28 16.4322C28 16.4288 28 16.4254 28 16.422C28 16.4186 28 16.4153 28 16.4119C28 16.4086 28 16.4052 28 16.4019C28 16.3986 28 16.3953 28 16.392C28 16.3888 28 16.3855 28 16.3823C28 16.379 28 16.3758 28 16.3726C28 16.3694 28 16.3662 28 16.3631C28 16.3599 28 16.3568 28 16.3536C28 16.3505 28 16.3474 28 16.3443C28 16.3412 28 16.3382 28 16.3351C28 16.3321 28 16.329 28 16.326C28 16.323 28 16.32 28 16.317C28 16.314 28 16.3111 28 16.3082C28 16.3052 28 16.3023 28 16.2994C28 16.2965 28 16.2936 28 16.2908C28 16.2879 28 16.285 28 16.2822C28 16.2794 28 16.2766 28 16.2738C28 16.271 28 16.2683 28 16.2655C28 16.2628 28 16.2601 28 16.2573C28 16.2546 28 16.252 28 16.2493C28 16.2466 28 16.244 28 16.2413C28 16.2387 28 16.2361 28 16.2335C28 16.2309 28 16.2284 28 16.2258C28 16.2233 28 16.2207 28 16.2182C28 16.2157 28 16.2132 28 16.2108C28 16.2083 28 16.2058 28 16.2034C28 16.201 28 16.1986 28 16.1962C28 16.1938 28 16.1914 28 16.1891C28 16.1867 28 16.1844 28 16.1821C28 16.1798 28 16.1775 28 16.1753C28 16.173 28 16.1707 28 16.1685C28 16.1663 28 16.1641 28 16.1619C28 16.1597 28 16.1576 28 16.1554C28 16.1533 28 16.1512 28 16.1491C28 16.147 28 16.1449 28 16.1428C28 16.1408 28 16.1387 28 16.1367C28 16.1347 28 16.1327 28 16.1307C28 16.1288 28 16.1268 28 16.1249C28 16.1229 28 16.121 28 16.1191C28 16.1172 28 16.1154 28 16.1135C28 16.1117 28 16.1099 28 16.1081C28 16.1063 28 16.1045 28 16.1027C28 16.101 28 16.0992 28 16.0975C28 16.0958 28 16.0941 28 16.0924C28 16.0907 28 16.0891 28 16.0874C28 16.0858 28 16.0842 28 16.0826C28 16.081 28 16.0795 28 16.0779C28 16.0764 28 16.0749 28 16.0734C28 16.0719 28 16.0704 28 16.0689C28 16.0675 28 16.066 28 16.0646C28 16.0632 28 16.0618 28 16.0605C28 16.0591 28 16.0578 28 16.0564C28 16.0551 28 16.0538 28 16.0525C28 16.0513 28 16.05 28 16.0488C28 16.0475 28 16.0463 28 16.0452C28 16.044 28 16.0428 28 16.0417C28 16.0405 28 16.0394 28 16.0383C28 16.0372 28 16.0361 28 16.0351C28 16.034 28 16.033 28 16.032C28 16.031 28 16.03 28 16.0291C28 16.0281 28 16.0272 28 16.0263C28 16.0254 28 16.0245 28 16.0236C28 16.0227 28 16.0219 28 16.0211C28 16.0203 28 16.0195 28 16.0187C28 16.0179 28 16.0172 28 16.0164C28 16.0157 28 16.015 28 16.0143C28 16.0137 28 16.013 28 16.0124C28 16.0118 28 16.0111 28 16.0106C28 16.01 28 16.0094 28 16.0089C28 16.0084 28 16.0078 28 16.0074C28 16.0069 28 16.0064 28 16.006C28 16.0055 28 16.0051 28 16.0047C28 16.0043 28 16.004 28 16.0036C28 16.0033 28 16.003 28 16.0027C28 16.0024 28 16.0021 28 16.0018C28 16.0016 28 16.0014 28 16.0012C28 16.001 28 16.0008 28 16.0007C28 16.0005 28 16.0004 28 16.0003C28 16.0002 28 16.0001 28 16.0001C28 16 28 16 27 16ZM26 24C26 24.4248 25.7775 24.9332 25.3554 25.3554C24.9332 25.7775 24.4248 26 24 26L24 28C25.0752 28 26.0668 27.4725 26.7696 26.7696C27.4725 26.0668 28 25.0752 28 24H26ZM8 26C7.57523 26 7.06676 25.7775 6.64461 25.3554C6.22245 24.9332 6 24.4248 6 24H4C4 25.0752 4.52755 26.0668 5.23039 26.7696C5.93324 27.4725 6.92477 28 8 28V26ZM6 24C6 23.9971 6 23.9941 6 23.9912C6 23.9883 6 23.9853 6 23.9824C6 23.9794 6 23.9765 6 23.9735C6 23.9705 6 23.9676 6 23.9646C6 23.9616 6 23.9587 6 23.9557C6 23.9527 6 23.9497 6 23.9467C6 23.9437 6 23.9407 6 23.9377C6 23.9347 6 23.9317 6 23.9287C6 23.9257 6 23.9227 6 23.9197C6 23.9166 6 23.9136 6 23.9106C6 23.9076 6 23.9045 6 23.9015C6 23.8984 6 23.8954 6 23.8923C6 23.8893 6 23.8862 6 23.8832C6 23.8801 6 23.877 6 23.874C6 23.8709 6 23.8678 6 23.8647C6 23.8617 6 23.8586 6 23.8555C6 23.8524 6 23.8493 6 23.8462C6 23.8431 6 23.84 6 23.8369C6 23.8338 6 23.8306 6 23.8275C6 23.8244 6 23.8213 6 23.8181C6 23.815 6 23.8119 6 23.8087C6 23.8056 6 23.8024 6 23.7993C6 23.7961 6 23.793 6 23.7898C6 23.7867 6 23.7835 6 23.7803C6 23.7772 6 23.774 6 23.7708C6 23.7676 6 23.7644 6 23.7612C6 23.758 6 23.7548 6 23.7516C6 23.7484 6 23.7452 6 23.742C6 23.7388 6 23.7356 6 23.7324C6 23.7292 6 23.7259 6 23.7227C6 23.7195 6 23.7162 6 23.713C6 23.7097 6 23.7065 6 23.7032C6 23.7 6 23.6967 6 23.6935C6 23.6902 6 23.687 6 23.6837C6 23.6804 6 23.6771 6 23.6739C6 23.6706 6 23.6673 6 23.664C6 23.6607 6 23.6574 6 23.6541C6 23.6508 6 23.6475 6 23.6442C6 23.6409 6 23.6376 6 23.6342C6 23.6309 6 23.6276 6 23.6243C6 23.6209 6 23.6176 6 23.6143C6 23.6109 6 23.6076 6 23.6042C6 23.6009 6 23.5975 6 23.5942C6 23.5908 6 23.5874 6 23.5841C6 23.5807 6 23.5773 6 23.5739C6 23.5706 6 23.5672 6 23.5638C6 23.5604 6 23.557 6 23.5536C6 23.5502 6 23.5468 6 23.5434C6 23.54 6 23.5366 6 23.5331C6 23.5297 6 23.5263 6 23.5229C6 23.5194 6 23.516 6 23.5126C6 23.5091 6 23.5057 6 23.5022C6 23.4988 6 23.4953 6 23.4919C6 23.4884 6 23.485 6 23.4815C6 23.478 6 23.4745 6 23.4711C6 23.4676 6 23.4641 6 23.4606C6 23.4571 6 23.4536 6 23.4501C6 23.4466 6 23.4431 6 23.4396C6 23.4361 6 23.4326 6 23.4291C6 23.4256 6 23.4221 6 23.4185C6 23.415 6 23.4115 6 23.4079C6 23.4044 6 23.4009 6 23.3973C6 23.3938 6 23.3902 6 23.3867C6 23.3831 6 23.3795 6 23.376C6 23.3724 6 23.3688 6 23.3653C6 23.3617 6 23.3581 6 23.3545C6 23.3509 6 23.3474 6 23.3438C6 23.3402 6 23.3366 6 23.333C6 23.3294 6 23.3257 6 23.3221C6 23.3185 6 23.3149 6 23.3113C6 23.3077 6 23.304 6 23.3004C6 23.2968 6 23.2931 6 23.2895C6 23.2858 6 23.2822 6 23.2785C6 23.2749 6 23.2712 6 23.2676C6 23.2639 6 23.2602 6 23.2566C6 23.2529 6 23.2492 6 23.2455C6 23.2419 6 23.2382 6 23.2345C6 23.2308 6 23.2271 6 23.2234C6 23.2197 6 23.216 6 23.2123C6 23.2086 6 23.2048 6 23.2011C6 23.1974 6 23.1937 6 23.19C6 23.1862 6 23.1825 6 23.1788C6 23.175 6 23.1713 6 23.1675C6 23.1638 6 23.16 6 23.1563C6 23.1525 6 23.1487 6 23.145C6 23.1412 6 23.1374 6 23.1337C6 23.1299 6 23.1261 6 23.1223C6 23.1185 6 23.1147 6 23.1109C6 23.1071 6 23.1033 6 23.0995C6 23.0957 6 23.0919 6 23.0881C6 23.0843 6 23.0805 6 23.0766C6 23.0728 6 23.069 6 23.0652C6 23.0613 6 23.0575 6 23.0536C6 23.0498 6 23.0459 6 23.0421C6 23.0382 6 23.0344 6 23.0305C6 23.0267 6 23.0228 6 23.0189C6 23.015 6 23.0112 6 23.0073C6 23.0034 6 22.9995 6 22.9956C6 22.9917 6 22.9878 6 22.9839C6 22.98 6 22.9761 6 22.9722C6 22.9683 6 22.9644 6 22.9605C6 22.9566 6 22.9526 6 22.9487C6 22.9448 6 22.9409 6 22.9369C6 22.933 6 22.929 6 22.9251C6 22.9211 6 22.9172 6 22.9132C6 22.9093 6 22.9053 6 22.9013C6 22.8974 6 22.8934 6 22.8894C6 22.8855 6 22.8815 6 22.8775C6 22.8735 6 22.8695 6 22.8655C6 22.8615 6 22.8575 6 22.8535C6 22.8495 6 22.8455 6 22.8415C6 22.8375 6 22.8335 6 22.8295C6 22.8254 6 22.8214 6 22.8174C6 22.8133 6 22.8093 6 22.8053C6 22.8012 6 22.7972 6 22.7931C6 22.7891 6 22.785 6 22.781C6 22.7769 6 22.7728 6 22.7688C6 22.7647 6 22.7606 6 22.7565C6 22.7525 6 22.7484 6 22.7443C6 22.7402 6 22.7361 6 22.732C6 22.7279 6 22.7238 6 22.7197C6 22.7156 6 22.7115 6 22.7074C6 22.7033 6 22.6992 6 22.695C6 22.6909 6 22.6868 6 22.6826C6 22.6785 6 22.6744 6 22.6702C6 22.6661 6 22.6619 6 22.6578C6 22.6536 6 22.6495 6 22.6453C6 22.6411 6 22.637 6 22.6328C6 22.6286 6 22.6245 6 22.6203C6 22.6161 6 22.6119 6 22.6077C6 22.6035 6 22.5993 6 22.5952C6 22.591 6 22.5868 6 22.5825C6 22.5783 6 22.5741 6 22.5699C6 22.5657 6 22.5615 6 22.5572C6 22.553 6 22.5488 6 22.5446C6 22.5403 6 22.5361 6 22.5318C6 22.5276 6 22.5233 6 22.5191C6 22.5148 6 22.5106 6 22.5063C6 22.502 6 22.4978 6 22.4935C6 22.4892 6 22.485 6 22.4807C6 22.4764 6 22.4721 6 22.4678C6 22.4635 6 22.4592 6 22.4549C6 22.4506 6 22.4463 6 22.442C6 22.4377 6 22.4334 6 22.4291C6 22.4248 6 22.4205 6 22.4161C6 22.4118 6 22.4075 6 22.4031C6 22.3988 6 22.3945 6 22.3901C6 22.3858 6 22.3814 6 22.3771C6 22.3727 6 22.3684 6 22.364C6 22.3596 6 22.3553 6 22.3509C6 22.3465 6 22.3421 6 22.3378C6 22.3334 6 22.329 6 22.3246C6 22.3202 6 22.3158 6 22.3114C6 22.307 6 22.3026 6 22.2982C6 22.2938 6 22.2894 6 22.285C6 22.2806 6 22.2761 6 22.2717C6 22.2673 6 22.2629 6 22.2584C6 22.254 6 22.2495 6 22.2451C6 22.2407 6 22.2362 6 22.2318C6 22.2273 6 22.2228 6 22.2184C6 22.2139 6 22.2095 6 22.205C6 22.2005 6 22.196 6 22.1916C6 22.1871 6 22.1826 6 22.1781C6 22.1736 6 22.1691 6 22.1646C6 22.1601 6 22.1556 6 22.1511C6 22.1466 6 22.1421 6 22.1376C6 22.1331 6 22.1285 6 22.124C6 22.1195 6 22.115 6 22.1104C6 22.1059 6 22.1014 6 22.0968C6 22.0923 6 22.0877 6 22.0832C6 22.0786 6 22.0741 6 22.0695C6 22.065 6 22.0604 6 22.0558C6 22.0513 6 22.0467 6 22.0421C6 22.0375 6 22.0329 6 22.0284C6 22.0238 6 22.0192 6 22.0146C6 22.01 6 22.0054 6 22.0008C6 21.9962 6 21.9916 6 21.987C6 21.9823 6 21.9777 6 21.9731C6 21.9685 6 21.9638 6 21.9592C6 21.9546 6 21.9499 6 21.9453C6 21.9407 6 21.936 6 21.9314C6 21.9267 6 21.9221 6 21.9174C6 21.9128 6 21.9081 6 21.9034C6 21.8988 6 21.8941 6 21.8894C6 21.8847 6 21.8801 6 21.8754C6 21.8707 6 21.866 6 21.8613C6 21.8566 6 21.8519 6 21.8472C6 21.8425 6 21.8378 6 21.8331C6 21.8284 6 21.8237 6 21.819C6 21.8142 6 21.8095 6 21.8048C6 21.8001 6 21.7953 6 21.7906C6 21.7859 6 21.7811 6 21.7764C6 21.7716 6 21.7669 6 21.7621C6 21.7574 6 21.7526 6 21.7478C6 21.7431 6 21.7383 6 21.7335C6 21.7288 6 21.724 6 21.7192C6 21.7144 6 21.7096 6 21.7049C6 21.7001 6 21.6953 6 21.6905C6 21.6857 6 21.6809 6 21.6761C6 21.6713 6 21.6665 6 21.6616C6 21.6568 6 21.652 6 21.6472C6 21.6424 6 21.6375 6 21.6327C6 21.6279 6 21.623 6 21.6182C6 21.6133 6 21.6085 6 21.6036C6 21.5988 6 21.5939 6 21.5891C6 21.5842 6 21.5794 6 21.5745C6 21.5696 6 21.5648 6 21.5599C6 21.555 6 21.5501 6 21.5452C6 21.5404 6 21.5355 6 21.5306C6 21.5257 6 21.5208 6 21.5159C6 21.511 6 21.5061 6 21.5012C6 21.4963 6 21.4913 6 21.4864C6 21.4815 6 21.4766 6 21.4717C6 21.4667 6 21.4618 6 21.4569C6 21.4519 6 21.447 6 21.442C6 21.4371 6 21.4321 6 21.4272C6 21.4222 6 21.4173 6 21.4123C6 21.4074 6 21.4024 6 21.3974C6 21.3925 6 21.3875 6 21.3825C6 21.3775 6 21.3725 6 21.3675C6 21.3626 6 21.3576 6 21.3526C6 21.3476 6 21.3426 6 21.3376C6 21.3326 6 21.3276 6 21.3225C6 21.3175 6 21.3125 6 21.3075C6 21.3025 6 21.2974 6 21.2924C6 21.2874 6 21.2824 6 21.2773C6 21.2723 6 21.2672 6 21.2622C6 21.2571 6 21.2521 6 21.247C6 21.242 6 21.2369 6 21.2319C6 21.2268 6 21.2217 6 21.2167C6 21.2116 6 21.2065 6 21.2014C6 21.1963 6 21.1913 6 21.1862C6 21.1811 6 21.176 6 21.1709C6 21.1658 6 21.1607 6 21.1556C6 21.1505 6 21.1454 6 21.1403C6 21.1351 6 21.13 6 21.1249C6 21.1198 6 21.1146 6 21.1095C6 21.1044 6 21.0992 6 21.0941C6 21.089 6 21.0838 6 21.0787C6 21.0735 6 21.0684 6 21.0632C6 21.0581 6 21.0529 6 21.0477C6 21.0426 6 21.0374 6 21.0322C6 21.0271 6 21.0219 6 21.0167C6 21.0115 6 21.0063 6 21.0011C6 20.9959 6 20.9908 6 20.9856C6 20.9804 6 20.9752 6 20.9699C6 20.9647 6 20.9595 6 20.9543C6 20.9491 6 20.9439 6 20.9387C6 20.9334 6 20.9282 6 20.923C6 20.9177 6 20.9125 6 20.9073C6 20.902 6 20.8968 6 20.8915C6 20.8863 6 20.881 6 20.8758C6 20.8705 6 20.8653 6 20.86C6 20.8547 6 20.8495 6 20.8442C6 20.8389 6 20.8336 6 20.8284C6 20.8231 6 20.8178 6 20.8125C6 20.8072 6 20.8019 6 20.7966C6 20.7913 6 20.786 6 20.7807C6 20.7754 6 20.7701 6 20.7648C6 20.7595 6 20.7541 6 20.7488C6 20.7435 6 20.7382 6 20.7328C6 20.7275 6 20.7222 6 20.7168C6 20.7115 6 20.7062 6 20.7008C6 20.6955 6 20.6901 6 20.6848C6 20.6794 6 20.674 6 20.6687C6 20.6633 6 20.6579 6 20.6526C6 20.6472 6 20.6418 6 20.6364C6 20.6311 6 20.6257 6 20.6203C6 20.6149 6 20.6095 6 20.6041C6 20.5987 6 20.5933 6 20.5879C6 20.5825 6 20.5771 6 20.5717C6 20.5663 6 20.5609 6 20.5554C6 20.55 6 20.5446 6 20.5392C6 20.5337 6 20.5283 6 20.5229C6 20.5174 6 20.512 6 20.5065C6 20.5011 6 20.4956 6 20.4902C6 20.4847 6 20.4793 6 20.4738C6 20.4684 6 20.4629 6 20.4574C6 20.4519 6 20.4465 6 20.441C6 20.4355 6 20.43 6 20.4246C6 20.4191 6 20.4136 6 20.4081C6 20.4026 6 20.3971 6 20.3916C6 20.3861 6 20.3806 6 20.3751C6 20.3696 6 20.364 6 20.3585C6 20.353 6 20.3475 6 20.342C6 20.3364 6 20.3309 6 20.3254C6 20.3198 6 20.3143 6 20.3088C6 20.3032 6 20.2977 6 20.2921C6 20.2866 6 20.281 6 20.2755C6 20.2699 6 20.2643 6 20.2588C6 20.2532 6 20.2476 6 20.2421C6 20.2365 6 20.2309 6 20.2253C6 20.2197 6 20.2141 6 20.2086C6 20.203 6 20.1974 6 20.1918C6 20.1862 6 20.1806 6 20.175C6 20.1694 6 20.1638 6 20.1581C6 20.1525 6 20.1469 6 20.1413C6 20.1357 6 20.13 6 20.1244C6 20.1188 6 20.1131 6 20.1075C6 20.1019 6 20.0962 6 20.0906C6 20.0849 6 20.0793 6 20.0736C6 20.068 6 20.0623 6 20.0566C6 20.051 6 20.0453 6 20.0397C6 20.034 6 20.0283 6 20.0226C6 20.017 6 20.0113 6 20.0056C6 19.9999 6 19.9942 6 19.9885C6 19.9828 6 19.9771 6 19.9714C6 19.9657 6 19.96 6 19.9543C6 19.9486 6 19.9429 6 19.9372C6 19.9314 6 19.9257 6 19.92C6 19.9143 6 19.9085 6 19.9028C6 19.8971 6 19.8913 6 19.8856C6 19.8799 6 19.8741 6 19.8684C6 19.8626 6 19.8569 6 19.8511C6 19.8454 6 19.8396 6 19.8338C6 19.8281 6 19.8223 6 19.8165C6 19.8108 6 19.805 6 19.7992C6 19.7934 6 19.7876 6 19.7818C6 19.7761 6 19.7703 6 19.7645C6 19.7587 6 19.7529 6 19.7471C6 19.7413 6 19.7355 6 19.7296C6 19.7238 6 19.718 6 19.7122C6 19.7064 6 19.7006 6 19.6947C6 19.6889 6 19.6831 6 19.6772C6 19.6714 6 19.6656 6 19.6597C6 19.6539 6 19.648 6 19.6422C6 19.6363 6 19.6305 6 19.6246C6 19.6188 6 19.6129 6 19.607C6 19.6012 6 19.5953 6 19.5894C6 19.5836 6 19.5777 6 19.5718C6 19.5659 6 19.56 6 19.5541C6 19.5483 6 19.5424 6 19.5365C6 19.5306 6 19.5247 6 19.5188C6 19.5129 6 19.507 6 19.501C6 19.4951 6 19.4892 6 19.4833C6 19.4774 6 19.4715 6 19.4655C6 19.4596 6 19.4537 6 19.4477C6 19.4418 6 19.4359 6 19.4299C6 19.424 6 19.418 6 19.4121C6 19.4061 6 19.4002 6 19.3942C6 19.3883 6 19.3823 6 19.3763C6 19.3704 6 19.3644 6 19.3584C6 19.3525 6 19.3465 6 19.3405C6 19.3345 6 19.3285 6 19.3225C6 19.3166 6 19.3106 6 19.3046C6 19.2986 6 19.2926 6 19.2866C6 19.2806 6 19.2746 6 19.2685C6 19.2625 6 19.2565 6 19.2505C6 19.2445 6 19.2385 6 19.2324C6 19.2264 6 19.2204 6 19.2143C6 19.2083 6 19.2023 6 19.1962C6 19.1902 6 19.1841 6 19.1781C6 19.1721 6 19.166 6 19.1599C6 19.1539 6 19.1478 6 19.1418C6 19.1357 6 19.1296 6 19.1236C6 19.1175 6 19.1114 6 19.1053C6 19.0993 6 19.0932 6 19.0871C6 19.081 6 19.0749 6 19.0688C6 19.0627 6 19.0566 6 19.0505C6 19.0444 6 19.0383 6 19.0322C6 19.0261 6 19.02 6 19.0139C6 19.0078 6 19.0016 6 18.9955C6 18.9894 6 18.9833 6 18.9771C6 18.971 6 18.9649 6 18.9587C6 18.9526 6 18.9464 6 18.9403C6 18.9341 6 18.928 6 18.9218C6 18.9157 6 18.9095 6 18.9034C6 18.8972 6 18.891 6 18.8849C6 18.8787 6 18.8725 6 18.8664C6 18.8602 6 18.854 6 18.8478C6 18.8416 6 18.8354 6 18.8293C6 18.8231 6 18.8169 6 18.8107C6 18.8045 6 18.7983 6 18.7921C6 18.7859 6 18.7796 6 18.7734C6 18.7672 6 18.761 6 18.7548C6 18.7486 6 18.7423 6 18.7361C6 18.7299 6 18.7237 6 18.7174C6 18.7112 6 18.7049 6 18.6987C6 18.6925 6 18.6862 6 18.68C6 18.6737 6 18.6675 6 18.6612C6 18.6549 6 18.6487 6 18.6424C6 18.6362 6 18.6299 6 18.6236C6 18.6173 6 18.6111 6 18.6048C6 18.5985 6 18.5922 6 18.5859C6 18.5797 6 18.5734 6 18.5671C6 18.5608 6 18.5545 6 18.5482C6 18.5419 6 18.5356 6 18.5293C6 18.523 6 18.5166 6 18.5103C6 18.504 6 18.4977 6 18.4914C6 18.485 6 18.4787 6 18.4724C6 18.4661 6 18.4597 6 18.4534C6 18.447 6 18.4407 6 18.4344C6 18.428 6 18.4217 6 18.4153C6 18.409 6 18.4026 6 18.3962C6 18.3899 6 18.3835 6 18.3772C6 18.3708 6 18.3644 6 18.358C6 18.3517 6 18.3453 6 18.3389C6 18.3325 6 18.3261 6 18.3198C6 18.3134 6 18.307 6 18.3006C6 18.2942 6 18.2878 6 18.2814C6 18.275 6 18.2686 6 18.2622C6 18.2558 6 18.2493 6 18.2429C6 18.2365 6 18.2301 6 18.2237C6 18.2172 6 18.2108 6 18.2044C6 18.198 6 18.1915 6 18.1851C6 18.1786 6 18.1722 6 18.1658C6 18.1593 6 18.1529 6 18.1464C6 18.14 6 18.1335 6 18.127C6 18.1206 6 18.1141 6 18.1076C6 18.1012 6 18.0947 6 18.0882C6 18.0818 6 18.0753 6 18.0688C6 18.0623 6 18.0558 6 18.0493C6 18.0429 6 18.0364 6 18.0299C6 18.0234 6 18.0169 6 18.0104C6 18.0039 6 17.9974 6 17.9909C6 17.9843 6 17.9778 6 17.9713C6 17.9648 6 17.9583 6 17.9518C6 17.9452 6 17.9387 6 17.9322C6 17.9256 6 17.9191 6 17.9126C6 17.906 6 17.8995 6 17.8929C6 17.8864 6 17.8798 6 17.8733C6 17.8667 6 17.8602 6 17.8536C6 17.8471 6 17.8405 6 17.8339C6 17.8274 6 17.8208 6 17.8142C6 17.8077 6 17.8011 6 17.7945C6 17.7879 6 17.7813 6 17.7748C6 17.7682 6 17.7616 6 17.755C6 17.7484 6 17.7418 6 17.7352C6 17.7286 6 17.722 6 17.7154C6 17.7088 6 17.7022 6 17.6955C6 17.6889 6 17.6823 6 17.6757C6 17.6691 6 17.6624 6 17.6558C6 17.6492 6 17.6425 6 17.6359C6 17.6293 6 17.6226 6 17.616C6 17.6093 6 17.6027 6 17.5961C6 17.5894 6 17.5827 6 17.5761C6 17.5694 6 17.5628 6 17.5561C6 17.5494 6 17.5428 6 17.5361C6 17.5294 6 17.5228 6 17.5161C6 17.5094 6 17.5027 6 17.496C6 17.4894 6 17.4827 6 17.476C6 17.4693 6 17.4626 6 17.4559C6 17.4492 6 17.4425 6 17.4358C6 17.4291 6 17.4224 6 17.4157C6 17.409 6 17.4022 6 17.3955C6 17.3888 6 17.3821 6 17.3754C6 17.3686 6 17.3619 6 17.3552C6 17.3484 6 17.3417 6 17.335C6 17.3282 6 17.3215 6 17.3147C6 17.308 6 17.3012 6 17.2945C6 17.2877 6 17.281 6 17.2742C6 17.2675 6 17.2607 6 17.2539C6 17.2472 6 17.2404 6 17.2336C6 17.2268 6 17.2201 6 17.2133C6 17.2065 6 17.1997 6 17.1929C6 17.1861 6 17.1794 6 17.1726C6 17.1658 6 17.159 6 17.1522C6 17.1454 6 17.1386 6 17.1318C6 17.125 6 17.1181 6 17.1113C6 17.1045 6 17.0977 6 17.0909C6 17.0841 6 17.0772 6 17.0704C6 17.0636 6 17.0567 6 17.0499C6 17.0431 6 17.0362 6 17.0294C6 17.0226 6 17.0157 6 17.0089C6 17.002 6 16.9952 6 16.9883C6 16.9815 6 16.9746 6 16.9677C6 16.9609 6 16.954 6 16.9471C6 16.9403 6 16.9334 6 16.9265C6 16.9197 6 16.9128 6 16.9059C6 16.899 6 16.8921 6 16.8852C6 16.8784 6 16.8715 6 16.8646C6 16.8577 6 16.8508 6 16.8439C6 16.837 6 16.8301 6 16.8232C6 16.8163 6 16.8093 6 16.8024C6 16.7955 6 16.7886 6 16.7817C6 16.7748 6 16.7678 6 16.7609C6 16.754 6 16.747 6 16.7401C6 16.7332 6 16.7262 6 16.7193C6 16.7124 6 16.7054 6 16.6985C6 16.6915 6 16.6846 6 16.6776C6 16.6707 6 16.6637 6 16.6567C6 16.6498 6 16.6428 6 16.6358C6 16.6289 6 16.6219 6 16.6149C6 16.608 6 16.601 6 16.594C6 16.587 6 16.58 6 16.5731C6 16.5661 6 16.5591 6 16.5521C6 16.5451 6 16.5381 6 16.5311C6 16.5241 6 16.5171 6 16.5101C6 16.5031 6 16.4961 6 16.4891C6 16.482 6 16.475 6 16.468C6 16.461 6 16.454 6 16.4469C6 16.4399 6 16.4329 6 16.4258C6 16.4188 6 16.4118 6 16.4047C6 16.3977 6 16.3907 6 16.3836C6 16.3766 6 16.3695 6 16.3625C6 16.3554 6 16.3484 6 16.3413C6 16.3342 6 16.3272 6 16.3201C6 16.313 6 16.306 6 16.2989C6 16.2918 6 16.2848 6 16.2777C6 16.2706 6 16.2635 6 16.2564C6 16.2493 6 16.2423 6 16.2352C6 16.2281 6 16.221 6 16.2139C6 16.2068 6 16.1997 6 16.1926C6 16.1855 6 16.1784 6 16.1713C6 16.1642 6 16.157 6 16.1499C6 16.1428 6 16.1357 6 16.1286C6 16.1214 6 16.1143 6 16.1072C6 16.1001 6 16.0929 6 16.0858C6 16.0786 6 16.0715 6 16.0644C6 16.0572 6 16.0501 6 16.0429C6 16.0358 6 16.0286 6 16.0215C6 16.0143 6 16.0072 6 16H4C4 16.0072 4 16.0143 4 16.0215C4 16.0286 4 16.0358 4 16.0429C4 16.0501 4 16.0572 4 16.0644C4 16.0715 4 16.0786 4 16.0858C4 16.0929 4 16.1001 4 16.1072C4 16.1143 4 16.1214 4 16.1286C4 16.1357 4 16.1428 4 16.1499C4 16.157 4 16.1642 4 16.1713C4 16.1784 4 16.1855 4 16.1926C4 16.1997 4 16.2068 4 16.2139C4 16.221 4 16.2281 4 16.2352C4 16.2423 4 16.2493 4 16.2564C4 16.2635 4 16.2706 4 16.2777C4 16.2848 4 16.2918 4 16.2989C4 16.306 4 16.313 4 16.3201C4 16.3272 4 16.3342 4 16.3413C4 16.3484 4 16.3554 4 16.3625C4 16.3695 4 16.3766 4 16.3836C4 16.3907 4 16.3977 4 16.4047C4 16.4118 4 16.4188 4 16.4258C4 16.4329 4 16.4399 4 16.4469C4 16.454 4 16.461 4 16.468C4 16.475 4 16.482 4 16.4891C4 16.4961 4 16.5031 4 16.5101C4 16.5171 4 16.5241 4 16.5311C4 16.5381 4 16.5451 4 16.5521C4 16.5591 4 16.5661 4 16.5731C4 16.58 4 16.587 4 16.594C4 16.601 4 16.608 4 16.6149C4 16.6219 4 16.6289 4 16.6358C4 16.6428 4 16.6498 4 16.6567C4 16.6637 4 16.6707 4 16.6776C4 16.6846 4 16.6915 4 16.6985C4 16.7054 4 16.7124 4 16.7193C4 16.7262 4 16.7332 4 16.7401C4 16.747 4 16.754 4 16.7609C4 16.7678 4 16.7748 4 16.7817C4 16.7886 4 16.7955 4 16.8024C4 16.8093 4 16.8163 4 16.8232C4 16.8301 4 16.837 4 16.8439C4 16.8508 4 16.8577 4 16.8646C4 16.8715 4 16.8784 4 16.8852C4 16.8921 4 16.899 4 16.9059C4 16.9128 4 16.9197 4 16.9265C4 16.9334 4 16.9403 4 16.9471C4 16.954 4 16.9609 4 16.9677C4 16.9746 4 16.9815 4 16.9883C4 16.9952 4 17.002 4 17.0089C4 17.0157 4 17.0226 4 17.0294C4 17.0362 4 17.0431 4 17.0499C4 17.0567 4 17.0636 4 17.0704C4 17.0772 4 17.0841 4 17.0909C4 17.0977 4 17.1045 4 17.1113C4 17.1181 4 17.125 4 17.1318C4 17.1386 4 17.1454 4 17.1522C4 17.159 4 17.1658 4 17.1726C4 17.1794 4 17.1861 4 17.1929C4 17.1997 4 17.2065 4 17.2133C4 17.2201 4 17.2268 4 17.2336C4 17.2404 4 17.2472 4 17.2539C4 17.2607 4 17.2675 4 17.2742C4 17.281 4 17.2877 4 17.2945C4 17.3012 4 17.308 4 17.3147C4 17.3215 4 17.3282 4 17.335C4 17.3417 4 17.3484 4 17.3552C4 17.3619 4 17.3686 4 17.3754C4 17.3821 4 17.3888 4 17.3955C4 17.4022 4 17.409 4 17.4157C4 17.4224 4 17.4291 4 17.4358C4 17.4425 4 17.4492 4 17.4559C4 17.4626 4 17.4693 4 17.476C4 17.4827 4 17.4894 4 17.496C4 17.5027 4 17.5094 4 17.5161C4 17.5228 4 17.5294 4 17.5361C4 17.5428 4 17.5494 4 17.5561C4 17.5628 4 17.5694 4 17.5761C4 17.5827 4 17.5894 4 17.5961C4 17.6027 4 17.6093 4 17.616C4 17.6226 4 17.6293 4 17.6359C4 17.6425 4 17.6492 4 17.6558C4 17.6624 4 17.6691 4 17.6757C4 17.6823 4 17.6889 4 17.6955C4 17.7022 4 17.7088 4 17.7154C4 17.722 4 17.7286 4 17.7352C4 17.7418 4 17.7484 4 17.755C4 17.7616 4 17.7682 4 17.7748C4 17.7813 4 17.7879 4 17.7945C4 17.8011 4 17.8077 4 17.8142C4 17.8208 4 17.8274 4 17.8339C4 17.8405 4 17.8471 4 17.8536C4 17.8602 4 17.8667 4 17.8733C4 17.8798 4 17.8864 4 17.8929C4 17.8995 4 17.906 4 17.9126C4 17.9191 4 17.9256 4 17.9322C4 17.9387 4 17.9452 4 17.9518C4 17.9583 4 17.9648 4 17.9713C4 17.9778 4 17.9843 4 17.9909C4 17.9974 4 18.0039 4 18.0104C4 18.0169 4 18.0234 4 18.0299C4 18.0364 4 18.0429 4 18.0493C4 18.0558 4 18.0623 4 18.0688C4 18.0753 4 18.0818 4 18.0882C4 18.0947 4 18.1012 4 18.1076C4 18.1141 4 18.1206 4 18.127C4 18.1335 4 18.14 4 18.1464C4 18.1529 4 18.1593 4 18.1658C4 18.1722 4 18.1786 4 18.1851C4 18.1915 4 18.198 4 18.2044C4 18.2108 4 18.2172 4 18.2237C4 18.2301 4 18.2365 4 18.2429C4 18.2493 4 18.2558 4 18.2622C4 18.2686 4 18.275 4 18.2814C4 18.2878 4 18.2942 4 18.3006C4 18.307 4 18.3134 4 18.3198C4 18.3261 4 18.3325 4 18.3389C4 18.3453 4 18.3517 4 18.358C4 18.3644 4 18.3708 4 18.3772C4 18.3835 4 18.3899 4 18.3962C4 18.4026 4 18.409 4 18.4153C4 18.4217 4 18.428 4 18.4344C4 18.4407 4 18.447 4 18.4534C4 18.4597 4 18.4661 4 18.4724C4 18.4787 4 18.485 4 18.4914C4 18.4977 4 18.504 4 18.5103C4 18.5166 4 18.523 4 18.5293C4 18.5356 4 18.5419 4 18.5482C4 18.5545 4 18.5608 4 18.5671C4 18.5734 4 18.5797 4 18.5859C4 18.5922 4 18.5985 4 18.6048C4 18.6111 4 18.6173 4 18.6236C4 18.6299 4 18.6362 4 18.6424C4 18.6487 4 18.6549 4 18.6612C4 18.6675 4 18.6737 4 18.68C4 18.6862 4 18.6925 4 18.6987C4 18.7049 4 18.7112 4 18.7174C4 18.7237 4 18.7299 4 18.7361C4 18.7423 4 18.7486 4 18.7548C4 18.761 4 18.7672 4 18.7734C4 18.7796 4 18.7859 4 18.7921C4 18.7983 4 18.8045 4 18.8107C4 18.8169 4 18.8231 4 18.8293C4 18.8354 4 18.8416 4 18.8478C4 18.854 4 18.8602 4 18.8664C4 18.8725 4 18.8787 4 18.8849C4 18.891 4 18.8972 4 18.9034C4 18.9095 4 18.9157 4 18.9218C4 18.928 4 18.9341 4 18.9403C4 18.9464 4 18.9526 4 18.9587C4 18.9649 4 18.971 4 18.9771C4 18.9833 4 18.9894 4 18.9955C4 19.0016 4 19.0078 4 19.0139C4 19.02 4 19.0261 4 19.0322C4 19.0383 4 19.0444 4 19.0505C4 19.0566 4 19.0627 4 19.0688C4 19.0749 4 19.081 4 19.0871C4 19.0932 4 19.0993 4 19.1053C4 19.1114 4 19.1175 4 19.1236C4 19.1296 4 19.1357 4 19.1418C4 19.1478 4 19.1539 4 19.1599C4 19.166 4 19.1721 4 19.1781C4 19.1841 4 19.1902 4 19.1962C4 19.2023 4 19.2083 4 19.2143C4 19.2204 4 19.2264 4 19.2324C4 19.2385 4 19.2445 4 19.2505C4 19.2565 4 19.2625 4 19.2685C4 19.2746 4 19.2806 4 19.2866C4 19.2926 4 19.2986 4 19.3046C4 19.3106 4 19.3166 4 19.3225C4 19.3285 4 19.3345 4 19.3405C4 19.3465 4 19.3525 4 19.3584C4 19.3644 4 19.3704 4 19.3763C4 19.3823 4 19.3883 4 19.3942C4 19.4002 4 19.4061 4 19.4121C4 19.418 4 19.424 4 19.4299C4 19.4359 4 19.4418 4 19.4477C4 19.4537 4 19.4596 4 19.4655C4 19.4715 4 19.4774 4 19.4833C4 19.4892 4 19.4951 4 19.501C4 19.507 4 19.5129 4 19.5188C4 19.5247 4 19.5306 4 19.5365C4 19.5424 4 19.5483 4 19.5541C4 19.56 4 19.5659 4 19.5718C4 19.5777 4 19.5836 4 19.5894C4 19.5953 4 19.6012 4 19.607C4 19.6129 4 19.6188 4 19.6246C4 19.6305 4 19.6363 4 19.6422C4 19.648 4 19.6539 4 19.6597C4 19.6656 4 19.6714 4 19.6772C4 19.6831 4 19.6889 4 19.6947C4 19.7006 4 19.7064 4 19.7122C4 19.718 4 19.7238 4 19.7296C4 19.7355 4 19.7413 4 19.7471C4 19.7529 4 19.7587 4 19.7645C4 19.7703 4 19.7761 4 19.7818C4 19.7876 4 19.7934 4 19.7992C4 19.805 4 19.8108 4 19.8165C4 19.8223 4 19.8281 4 19.8338C4 19.8396 4 19.8454 4 19.8511C4 19.8569 4 19.8626 4 19.8684C4 19.8741 4 19.8799 4 19.8856C4 19.8913 4 19.8971 4 19.9028C4 19.9085 4 19.9143 4 19.92C4 19.9257 4 19.9314 4 19.9372C4 19.9429 4 19.9486 4 19.9543C4 19.96 4 19.9657 4 19.9714C4 19.9771 4 19.9828 4 19.9885C4 19.9942 4 19.9999 4 20.0056C4 20.0113 4 20.017 4 20.0226C4 20.0283 4 20.034 4 20.0397C4 20.0453 4 20.051 4 20.0566C4 20.0623 4 20.068 4 20.0736C4 20.0793 4 20.0849 4 20.0906C4 20.0962 4 20.1019 4 20.1075C4 20.1131 4 20.1188 4 20.1244C4 20.13 4 20.1357 4 20.1413C4 20.1469 4 20.1525 4 20.1581C4 20.1638 4 20.1694 4 20.175C4 20.1806 4 20.1862 4 20.1918C4 20.1974 4 20.203 4 20.2086C4 20.2141 4 20.2197 4 20.2253C4 20.2309 4 20.2365 4 20.2421C4 20.2476 4 20.2532 4 20.2588C4 20.2643 4 20.2699 4 20.2755C4 20.281 4 20.2866 4 20.2921C4 20.2977 4 20.3032 4 20.3088C4 20.3143 4 20.3198 4 20.3254C4 20.3309 4 20.3364 4 20.342C4 20.3475 4 20.353 4 20.3585C4 20.364 4 20.3696 4 20.3751C4 20.3806 4 20.3861 4 20.3916C4 20.3971 4 20.4026 4 20.4081C4 20.4136 4 20.4191 4 20.4246C4 20.43 4 20.4355 4 20.441C4 20.4465 4 20.4519 4 20.4574C4 20.4629 4 20.4684 4 20.4738C4 20.4793 4 20.4847 4 20.4902C4 20.4956 4 20.5011 4 20.5065C4 20.512 4 20.5174 4 20.5229C4 20.5283 4 20.5337 4 20.5392C4 20.5446 4 20.55 4 20.5554C4 20.5609 4 20.5663 4 20.5717C4 20.5771 4 20.5825 4 20.5879C4 20.5933 4 20.5987 4 20.6041C4 20.6095 4 20.6149 4 20.6203C4 20.6257 4 20.6311 4 20.6364C4 20.6418 4 20.6472 4 20.6526C4 20.6579 4 20.6633 4 20.6687C4 20.674 4 20.6794 4 20.6848C4 20.6901 4 20.6955 4 20.7008C4 20.7062 4 20.7115 4 20.7168C4 20.7222 4 20.7275 4 20.7328C4 20.7382 4 20.7435 4 20.7488C4 20.7541 4 20.7595 4 20.7648C4 20.7701 4 20.7754 4 20.7807C4 20.786 4 20.7913 4 20.7966C4 20.8019 4 20.8072 4 20.8125C4 20.8178 4 20.8231 4 20.8284C4 20.8336 4 20.8389 4 20.8442C4 20.8495 4 20.8547 4 20.86C4 20.8653 4 20.8705 4 20.8758C4 20.881 4 20.8863 4 20.8915C4 20.8968 4 20.902 4 20.9073C4 20.9125 4 20.9177 4 20.923C4 20.9282 4 20.9334 4 20.9387C4 20.9439 4 20.9491 4 20.9543C4 20.9595 4 20.9647 4 20.9699C4 20.9752 4 20.9804 4 20.9856C4 20.9908 4 20.9959 4 21.0011C4 21.0063 4 21.0115 4 21.0167C4 21.0219 4 21.0271 4 21.0322C4 21.0374 4 21.0426 4 21.0477C4 21.0529 4 21.0581 4 21.0632C4 21.0684 4 21.0735 4 21.0787C4 21.0838 4 21.089 4 21.0941C4 21.0992 4 21.1044 4 21.1095C4 21.1146 4 21.1198 4 21.1249C4 21.13 4 21.1351 4 21.1403C4 21.1454 4 21.1505 4 21.1556C4 21.1607 4 21.1658 4 21.1709C4 21.176 4 21.1811 4 21.1862C4 21.1913 4 21.1963 4 21.2014C4 21.2065 4 21.2116 4 21.2167C4 21.2217 4 21.2268 4 21.2319C4 21.2369 4 21.242 4 21.247C4 21.2521 4 21.2571 4 21.2622C4 21.2672 4 21.2723 4 21.2773C4 21.2824 4 21.2874 4 21.2924C4 21.2974 4 21.3025 4 21.3075C4 21.3125 4 21.3175 4 21.3225C4 21.3276 4 21.3326 4 21.3376C4 21.3426 4 21.3476 4 21.3526C4 21.3576 4 21.3626 4 21.3675C4 21.3725 4 21.3775 4 21.3825C4 21.3875 4 21.3925 4 21.3974C4 21.4024 4 21.4074 4 21.4123C4 21.4173 4 21.4222 4 21.4272C4 21.4321 4 21.4371 4 21.442C4 21.447 4 21.4519 4 21.4569C4 21.4618 4 21.4667 4 21.4717C4 21.4766 4 21.4815 4 21.4864C4 21.4913 4 21.4963 4 21.5012C4 21.5061 4 21.511 4 21.5159C4 21.5208 4 21.5257 4 21.5306C4 21.5355 4 21.5404 4 21.5452C4 21.5501 4 21.555 4 21.5599C4 21.5648 4 21.5696 4 21.5745C4 21.5794 4 21.5842 4 21.5891C4 21.5939 4 21.5988 4 21.6036C4 21.6085 4 21.6133 4 21.6182C4 21.623 4 21.6279 4 21.6327C4 21.6375 4 21.6424 4 21.6472C4 21.652 4 21.6568 4 21.6616C4 21.6665 4 21.6713 4 21.6761C4 21.6809 4 21.6857 4 21.6905C4 21.6953 4 21.7001 4 21.7049C4 21.7096 4 21.7144 4 21.7192C4 21.724 4 21.7288 4 21.7335C4 21.7383 4 21.7431 4 21.7478C4 21.7526 4 21.7574 4 21.7621C4 21.7669 4 21.7716 4 21.7764C4 21.7811 4 21.7859 4 21.7906C4 21.7953 4 21.8001 4 21.8048C4 21.8095 4 21.8142 4 21.819C4 21.8237 4 21.8284 4 21.8331C4 21.8378 4 21.8425 4 21.8472C4 21.8519 4 21.8566 4 21.8613C4 21.866 4 21.8707 4 21.8754C4 21.8801 4 21.8847 4 21.8894C4 21.8941 4 21.8988 4 21.9034C4 21.9081 4 21.9128 4 21.9174C4 21.9221 4 21.9267 4 21.9314C4 21.936 4 21.9407 4 21.9453C4 21.9499 4 21.9546 4 21.9592C4 21.9638 4 21.9685 4 21.9731C4 21.9777 4 21.9823 4 21.987C4 21.9916 4 21.9962 4 22.0008C4 22.0054 4 22.01 4 22.0146C4 22.0192 4 22.0238 4 22.0284C4 22.0329 4 22.0375 4 22.0421C4 22.0467 4 22.0513 4 22.0558C4 22.0604 4 22.065 4 22.0695C4 22.0741 4 22.0786 4 22.0832C4 22.0877 4 22.0923 4 22.0968C4 22.1014 4 22.1059 4 22.1104C4 22.115 4 22.1195 4 22.124C4 22.1285 4 22.1331 4 22.1376C4 22.1421 4 22.1466 4 22.1511C4 22.1556 4 22.1601 4 22.1646C4 22.1691 4 22.1736 4 22.1781C4 22.1826 4 22.1871 4 22.1916C4 22.196 4 22.2005 4 22.205C4 22.2095 4 22.2139 4 22.2184C4 22.2228 4 22.2273 4 22.2318C4 22.2362 4 22.2407 4 22.2451C4 22.2495 4 22.254 4 22.2584C4 22.2629 4 22.2673 4 22.2717C4 22.2761 4 22.2806 4 22.285C4 22.2894 4 22.2938 4 22.2982C4 22.3026 4 22.307 4 22.3114C4 22.3158 4 22.3202 4 22.3246C4 22.329 4 22.3334 4 22.3378C4 22.3421 4 22.3465 4 22.3509C4 22.3553 4 22.3596 4 22.364C4 22.3684 4 22.3727 4 22.3771C4 22.3814 4 22.3858 4 22.3901C4 22.3945 4 22.3988 4 22.4031C4 22.4075 4 22.4118 4 22.4161C4 22.4205 4 22.4248 4 22.4291C4 22.4334 4 22.4377 4 22.442C4 22.4463 4 22.4506 4 22.4549C4 22.4592 4 22.4635 4 22.4678C4 22.4721 4 22.4764 4 22.4807C4 22.485 4 22.4892 4 22.4935C4 22.4978 4 22.502 4 22.5063C4 22.5106 4 22.5148 4 22.5191C4 22.5233 4 22.5276 4 22.5318C4 22.5361 4 22.5403 4 22.5446C4 22.5488 4 22.553 4 22.5572C4 22.5615 4 22.5657 4 22.5699C4 22.5741 4 22.5783 4 22.5825C4 22.5868 4 22.591 4 22.5952C4 22.5993 4 22.6035 4 22.6077C4 22.6119 4 22.6161 4 22.6203C4 22.6245 4 22.6286 4 22.6328C4 22.637 4 22.6411 4 22.6453C4 22.6495 4 22.6536 4 22.6578C4 22.6619 4 22.6661 4 22.6702C4 22.6744 4 22.6785 4 22.6826C4 22.6868 4 22.6909 4 22.695C4 22.6992 4 22.7033 4 22.7074C4 22.7115 4 22.7156 4 22.7197C4 22.7238 4 22.7279 4 22.732C4 22.7361 4 22.7402 4 22.7443C4 22.7484 4 22.7525 4 22.7565C4 22.7606 4 22.7647 4 22.7688C4 22.7728 4 22.7769 4 22.781C4 22.785 4 22.7891 4 22.7931C4 22.7972 4 22.8012 4 22.8053C4 22.8093 4 22.8133 4 22.8174C4 22.8214 4 22.8254 4 22.8295C4 22.8335 4 22.8375 4 22.8415C4 22.8455 4 22.8495 4 22.8535C4 22.8575 4 22.8615 4 22.8655C4 22.8695 4 22.8735 4 22.8775C4 22.8815 4 22.8855 4 22.8894C4 22.8934 4 22.8974 4 22.9013C4 22.9053 4 22.9093 4 22.9132C4 22.9172 4 22.9211 4 22.9251C4 22.929 4 22.933 4 22.9369C4 22.9409 4 22.9448 4 22.9487C4 22.9526 4 22.9566 4 22.9605C4 22.9644 4 22.9683 4 22.9722C4 22.9761 4 22.98 4 22.9839C4 22.9878 4 22.9917 4 22.9956C4 22.9995 4 23.0034 4 23.0073C4 23.0112 4 23.015 4 23.0189C4 23.0228 4 23.0267 4 23.0305C4 23.0344 4 23.0382 4 23.0421C4 23.0459 4 23.0498 4 23.0536C4 23.0575 4 23.0613 4 23.0652C4 23.069 4 23.0728 4 23.0766C4 23.0805 4 23.0843 4 23.0881C4 23.0919 4 23.0957 4 23.0995C4 23.1033 4 23.1071 4 23.1109C4 23.1147 4 23.1185 4 23.1223C4 23.1261 4 23.1299 4 23.1337C4 23.1374 4 23.1412 4 23.145C4 23.1487 4 23.1525 4 23.1563C4 23.16 4 23.1638 4 23.1675C4 23.1713 4 23.175 4 23.1788C4 23.1825 4 23.1862 4 23.19C4 23.1937 4 23.1974 4 23.2011C4 23.2048 4 23.2086 4 23.2123C4 23.216 4 23.2197 4 23.2234C4 23.2271 4 23.2308 4 23.2345C4 23.2382 4 23.2419 4 23.2455C4 23.2492 4 23.2529 4 23.2566C4 23.2602 4 23.2639 4 23.2676C4 23.2712 4 23.2749 4 23.2785C4 23.2822 4 23.2858 4 23.2895C4 23.2931 4 23.2968 4 23.3004C4 23.304 4 23.3077 4 23.3113C4 23.3149 4 23.3185 4 23.3221C4 23.3257 4 23.3294 4 23.333C4 23.3366 4 23.3402 4 23.3438C4 23.3474 4 23.3509 4 23.3545C4 23.3581 4 23.3617 4 23.3653C4 23.3688 4 23.3724 4 23.376C4 23.3795 4 23.3831 4 23.3867C4 23.3902 4 23.3938 4 23.3973C4 23.4009 4 23.4044 4 23.4079C4 23.4115 4 23.415 4 23.4185C4 23.4221 4 23.4256 4 23.4291C4 23.4326 4 23.4361 4 23.4396C4 23.4431 4 23.4466 4 23.4501C4 23.4536 4 23.4571 4 23.4606C4 23.4641 4 23.4676 4 23.4711C4 23.4745 4 23.478 4 23.4815C4 23.485 4 23.4884 4 23.4919C4 23.4953 4 23.4988 4 23.5022C4 23.5057 4 23.5091 4 23.5126C4 23.516 4 23.5194 4 23.5229C4 23.5263 4 23.5297 4 23.5331C4 23.5366 4 23.54 4 23.5434C4 23.5468 4 23.5502 4 23.5536C4 23.557 4 23.5604 4 23.5638C4 23.5672 4 23.5706 4 23.5739C4 23.5773 4 23.5807 4 23.5841C4 23.5874 4 23.5908 4 23.5942C4 23.5975 4 23.6009 4 23.6042C4 23.6076 4 23.6109 4 23.6143C4 23.6176 4 23.6209 4 23.6243C4 23.6276 4 23.6309 4 23.6342C4 23.6376 4 23.6409 4 23.6442C4 23.6475 4 23.6508 4 23.6541C4 23.6574 4 23.6607 4 23.664C4 23.6673 4 23.6706 4 23.6739C4 23.6771 4 23.6804 4 23.6837C4 23.687 4 23.6902 4 23.6935C4 23.6967 4 23.7 4 23.7032C4 23.7065 4 23.7097 4 23.713C4 23.7162 4 23.7195 4 23.7227C4 23.7259 4 23.7292 4 23.7324C4 23.7356 4 23.7388 4 23.742C4 23.7452 4 23.7484 4 23.7516C4 23.7548 4 23.758 4 23.7612C4 23.7644 4 23.7676 4 23.7708C4 23.774 4 23.7772 4 23.7803C4 23.7835 4 23.7867 4 23.7898C4 23.793 4 23.7961 4 23.7993C4 23.8024 4 23.8056 4 23.8087C4 23.8119 4 23.815 4 23.8181C4 23.8213 4 23.8244 4 23.8275C4 23.8306 4 23.8338 4 23.8369C4 23.84 4 23.8431 4 23.8462C4 23.8493 4 23.8524 4 23.8555C4 23.8586 4 23.8617 4 23.8647C4 23.8678 4 23.8709 4 23.874C4 23.877 4 23.8801 4 23.8832C4 23.8862 4 23.8893 4 23.8923C4 23.8954 4 23.8984 4 23.9015C4 23.9045 4 23.9076 4 23.9106C4 23.9136 4 23.9166 4 23.9197C4 23.9227 4 23.9257 4 23.9287C4 23.9317 4 23.9347 4 23.9377C4 23.9407 4 23.9437 4 23.9467C4 23.9497 4 23.9527 4 23.9557C4 23.9587 4 23.9616 4 23.9646C4 23.9676 4 23.9705 4 23.9735C4 23.9765 4 23.9794 4 23.9824C4 23.9853 4 23.9883 4 23.9912C4 23.9941 4 23.9971 4 24H6ZM16 20.5C18.5467 20.5 20.1816 19.4952 21.1703 18.4305C21.654 17.9095 21.9706 17.3886 22.1679 16.9941C22.2668 16.7962 22.3369 16.6277 22.3838 16.5036C22.4072 16.4415 22.425 16.3901 22.4377 16.3515C22.4441 16.3321 22.4492 16.3159 22.4531 16.303C22.4551 16.2966 22.4568 16.291 22.4582 16.2863C22.4589 16.2839 22.4595 16.2818 22.46 16.2798C22.4603 16.2789 22.4606 16.278 22.4608 16.2771C22.461 16.2767 22.4611 16.2761 22.4612 16.2759C22.4614 16.2753 22.4615 16.2747 21.5 16C20.5385 15.7253 20.5386 15.7247 20.5388 15.7242C20.5388 15.724 20.539 15.7235 20.5391 15.7232C20.5393 15.7226 20.5394 15.722 20.5396 15.7214C20.5399 15.7203 20.5402 15.7195 20.5404 15.7188C20.5408 15.7174 20.5409 15.7168 20.5409 15.717C20.5408 15.7174 20.5397 15.7209 20.5376 15.7272C20.5335 15.7397 20.5254 15.7636 20.5127 15.7972C20.4873 15.8645 20.4441 15.9695 20.379 16.0997C20.2481 16.3614 20.0335 16.7155 19.7047 17.0695C19.0684 17.7548 17.9533 18.5 16 18.5L16 20.5ZM21.5 17H27V15H21.5V17ZM5 17H10.5V15H5V17ZM10.5 16C9.53848 16.2747 9.53864 16.2753 9.53881 16.2759C9.53887 16.2761 9.53904 16.2767 9.53916 16.2771C9.53941 16.278 9.53967 16.2789 9.53995 16.2798C9.54052 16.2818 9.54115 16.2839 9.54185 16.2863C9.54324 16.291 9.54492 16.2966 9.54689 16.303C9.55083 16.3159 9.55594 16.3321 9.5623 16.3515C9.57501 16.3901 9.59275 16.4415 9.61622 16.5036C9.66308 16.6277 9.73317 16.7962 9.83214 16.9941C10.0294 17.3886 10.346 17.9095 10.8297 18.4305C11.8184 19.4952 13.4533 20.5 16 20.5L16 18.5C14.0467 18.5 12.9316 17.7548 12.2953 17.0695C11.9665 16.7155 11.7519 16.3614 11.621 16.0997C11.5559 15.9695 11.5127 15.8645 11.4873 15.7972C11.4746 15.7636 11.4665 15.7397 11.4624 15.7272C11.4603 15.7209 11.4592 15.7174 11.4591 15.717C11.4591 15.7168 11.4592 15.7174 11.4596 15.7188C11.4598 15.7195 11.4601 15.7203 11.4604 15.7214C11.4606 15.722 11.4607 15.7226 11.4609 15.7232C11.461 15.7235 11.4612 15.724 11.4612 15.7242C11.4614 15.7247 11.4615 15.7253 10.5 16ZM24 26C22.5 26 9.5 26 8 26V28C9.5 28 22.5 28 24 28L24 26ZM25.0194 11.1961L26.0194 16.1961L27.9806 15.8039L26.9806 10.8039L25.0194 11.1961ZM4 16V19.5H6V16H4ZM5.01942 10.8039L4.01942 15.8039L5.98058 16.1961L6.98058 11.1961L5.01942 10.8039ZM13.5 10H18.5V8H13.5V10ZM13.5 14H18.5V12H13.5V14ZM10.5 13V5H8.5V13H10.5ZM9.5 6H22.5V4H9.5V6ZM21.5 5V13H23.5V5H21.5Z" fill="white"/>
</svg>
