<svg width="100" height="100" viewBox="0 0 100 100" fill="none" xmlns="http://www.w3.org/2000/svg">
<rect x="51.4287" y="28.0952" width="4.7619" height="27.1429" rx="2.38095" transform="rotate(-180 51.4287 28.0952)" fill="url(#paint0_linear_118_2)"/>
<rect x="33.5508" y="38.2217" width="4.7619" height="27.1429" rx="2.38095" transform="rotate(119.728 33.5508 38.2217)" fill="url(#paint1_linear_118_2)"/>
<rect x="67.6025" y="42.374" width="4.7619" height="27.1429" rx="2.38095" transform="rotate(-119.775 67.6025 42.374)" fill="url(#paint2_linear_118_2)"/>
<rect x="100" y="47.6191" width="4.7619" height="27.1429" rx="2.38095" transform="rotate(90 100 47.6191)" fill="url(#paint3_linear_118_2)"/>
<rect x="70.1582" y="64.7695" width="4.7619" height="27.1429" rx="2.38095" transform="rotate(-59.9395 70.1582 64.7695)" fill="url(#paint4_linear_118_2)"/>
<rect x="46.667" y="71.9048" width="4.7619" height="27.1429" rx="2.38095" fill="url(#paint5_linear_118_2)"/>
<rect x="25.8047" y="95.4683" width="4.7619" height="27.1429" rx="2.38095" transform="rotate(-150.349 25.8047 95.4683)" fill="url(#paint6_linear_118_2)"/>
<rect y="52.3809" width="4.7619" height="27.1429" rx="2.38095" transform="rotate(-90 0 52.3809)" fill="url(#paint7_linear_118_2)"/>
<rect x="33.2559" y="56.4285" width="4.7619" height="27.1429" rx="2.38095" transform="rotate(59.9488 33.2559 56.4285)" fill="url(#paint8_linear_118_2)"/>
<rect x="21.4287" y="7.16626" width="4.7619" height="27.1429" rx="2.38095" transform="rotate(-30.3261 21.4287 7.16626)" fill="url(#paint9_linear_118_2)"/>
<rect x="72.7051" y="4.52393" width="4.7619" height="27.1429" rx="2.38095" transform="rotate(30.2111 72.7051 4.52393)" fill="url(#paint10_linear_118_2)"/>
<rect x="76.4902" y="93.0361" width="4.7619" height="27.1429" rx="2.38095" transform="rotate(150 76.4902 93.0361)" fill="url(#paint11_linear_118_2)"/>
<defs>
<linearGradient id="paint0_linear_118_2" x1="53.8097" y1="28.0952" x2="53.8097" y2="55.2381" gradientUnits="userSpaceOnUse">
<stop stop-color="white" stop-opacity="0.48"/>
<stop offset="1" stop-color="#3C3C3C"/>
</linearGradient>
<linearGradient id="paint1_linear_118_2" x1="35.9317" y1="38.2217" x2="35.9317" y2="65.3645" gradientUnits="userSpaceOnUse">
<stop stop-color="white" stop-opacity="0.48"/>
<stop offset="1" stop-color="#3C3C3C"/>
</linearGradient>
<linearGradient id="paint2_linear_118_2" x1="69.9835" y1="42.374" x2="69.9835" y2="69.5169" gradientUnits="userSpaceOnUse">
<stop stop-color="white" stop-opacity="0.48"/>
<stop offset="1" stop-color="#3C3C3C"/>
</linearGradient>
<linearGradient id="paint3_linear_118_2" x1="102.381" y1="47.6191" x2="102.381" y2="74.762" gradientUnits="userSpaceOnUse">
<stop stop-color="white" stop-opacity="0.48"/>
<stop offset="1" stop-color="#3C3C3C"/>
</linearGradient>
<linearGradient id="paint4_linear_118_2" x1="72.5392" y1="64.7695" x2="72.5392" y2="91.9124" gradientUnits="userSpaceOnUse">
<stop stop-color="white" stop-opacity="0.48"/>
<stop offset="1" stop-color="#3C3C3C"/>
</linearGradient>
<linearGradient id="paint5_linear_118_2" x1="49.0479" y1="71.9048" x2="49.0479" y2="99.0476" gradientUnits="userSpaceOnUse">
<stop stop-color="white" stop-opacity="0.48"/>
<stop offset="1" stop-color="#3C3C3C"/>
</linearGradient>
<linearGradient id="paint6_linear_118_2" x1="28.1856" y1="95.4683" x2="28.1856" y2="122.611" gradientUnits="userSpaceOnUse">
<stop stop-color="white" stop-opacity="0.48"/>
<stop offset="1" stop-color="#3C3C3C"/>
</linearGradient>
<linearGradient id="paint7_linear_118_2" x1="2.38095" y1="52.3809" x2="2.38095" y2="79.5237" gradientUnits="userSpaceOnUse">
<stop stop-color="white" stop-opacity="0.48"/>
<stop offset="1" stop-color="#3C3C3C"/>
</linearGradient>
<linearGradient id="paint8_linear_118_2" x1="35.6368" y1="56.4285" x2="35.6368" y2="83.5713" gradientUnits="userSpaceOnUse">
<stop stop-color="white" stop-opacity="0.48"/>
<stop offset="1" stop-color="#3C3C3C"/>
</linearGradient>
<linearGradient id="paint9_linear_118_2" x1="23.8097" y1="7.16626" x2="23.8097" y2="34.3091" gradientUnits="userSpaceOnUse">
<stop stop-color="white" stop-opacity="0.48"/>
<stop offset="1" stop-color="#3C3C3C"/>
</linearGradient>
<linearGradient id="paint10_linear_118_2" x1="75.086" y1="4.52393" x2="75.086" y2="31.6668" gradientUnits="userSpaceOnUse">
<stop stop-color="white" stop-opacity="0.48"/>
<stop offset="1" stop-color="#3C3C3C"/>
</linearGradient>
<linearGradient id="paint11_linear_118_2" x1="78.8712" y1="93.0361" x2="78.8712" y2="120.179" gradientUnits="userSpaceOnUse">
<stop stop-color="white" stop-opacity="0.48"/>
<stop offset="1" stop-color="#3C3C3C"/>
</linearGradient>
</defs>
</svg>
