<svg width="80" height="80" viewBox="0 0 80 80" fill="none" xmlns="http://www.w3.org/2000/svg">
<circle cx="40" cy="40" r="39" fill="#FE594D" stroke="black" stroke-width="2"/>
<path d="M28.97 45.3C27.9167 45.3 27.0033 45.0667 26.23 44.6C25.4633 44.1333 24.8667 43.4767 24.44 42.63C24.0133 41.7833 23.8 40.79 23.8 39.65C23.8 38.47 24.01 37.45 24.43 36.59C24.85 35.73 25.44 35.0667 26.2 34.6C26.9667 34.1333 27.87 33.9 28.91 33.9C29.9767 33.9 30.8867 34.1467 31.64 34.64C32.3933 35.1267 32.9633 35.8267 33.35 36.74C33.7367 37.6533 33.9133 38.7433 33.88 40.01H32.38V39.49C32.3533 38.09 32.05 37.0333 31.47 36.32C30.8967 35.6067 30.0567 35.25 28.95 35.25C27.79 35.25 26.9 35.6267 26.28 36.38C25.6667 37.1333 25.36 38.2067 25.36 39.6C25.36 40.96 25.6667 42.0167 26.28 42.77C26.9 43.5167 27.7767 43.89 28.91 43.89C29.6833 43.89 30.3567 43.7133 30.93 43.36C31.51 43 31.9667 42.4833 32.3 41.81L33.67 42.34C33.2433 43.28 32.6133 44.01 31.78 44.53C30.9533 45.0433 30.0167 45.3 28.97 45.3ZM24.84 40.01V38.78H33.09V40.01H24.84ZM40.1292 45.29C38.8626 45.29 37.8192 45.0167 36.9992 44.47C36.1859 43.9233 35.6859 43.1633 35.4992 42.19L36.9992 41.94C37.1592 42.5533 37.5226 43.0433 38.0892 43.41C38.6626 43.77 39.3692 43.95 40.2092 43.95C41.0292 43.95 41.6759 43.78 42.1492 43.44C42.6226 43.0933 42.8592 42.6233 42.8592 42.03C42.8592 41.6967 42.7826 41.4267 42.6292 41.22C42.4826 41.0067 42.1792 40.81 41.7192 40.63C41.2592 40.45 40.5726 40.2367 39.6592 39.99C38.6792 39.7233 37.9126 39.4567 37.3592 39.19C36.8059 38.9233 36.4126 38.6167 36.1792 38.27C35.9459 37.9167 35.8292 37.4867 35.8292 36.98C35.8292 36.3667 36.0026 35.83 36.3492 35.37C36.6959 34.9033 37.1759 34.5433 37.7892 34.29C38.4026 34.03 39.1159 33.9 39.9292 33.9C40.7426 33.9 41.4692 34.0333 42.1092 34.3C42.7559 34.56 43.2759 34.9267 43.6692 35.4C44.0626 35.8733 44.2959 36.4233 44.3692 37.05L42.8692 37.32C42.7692 36.6867 42.4526 36.1867 41.9192 35.82C41.3926 35.4467 40.7226 35.2533 39.9092 35.24C39.1426 35.22 38.5192 35.3667 38.0392 35.68C37.5592 35.9867 37.3192 36.3967 37.3192 36.91C37.3192 37.1967 37.4059 37.4433 37.5792 37.65C37.7526 37.85 38.0659 38.04 38.5192 38.22C38.9792 38.4 39.6326 38.5967 40.4792 38.81C41.4726 39.0633 42.2526 39.33 42.8192 39.61C43.3859 39.89 43.7892 40.22 44.0292 40.6C44.2692 40.98 44.3892 41.45 44.3892 42.01C44.3892 43.03 44.0092 43.8333 43.2492 44.42C42.4959 45 41.4559 45.29 40.1292 45.29ZM51.087 45.3C50.0004 45.3 49.0804 45.0567 48.327 44.57C47.5737 44.0833 47.0004 43.4133 46.607 42.56C46.2204 41.7 46.0204 40.7133 46.007 39.6C46.0204 38.4667 46.227 37.4733 46.627 36.62C47.027 35.76 47.6037 35.0933 48.357 34.62C49.1104 34.14 50.0237 33.9 51.097 33.9C52.1904 33.9 53.1404 34.1667 53.947 34.7C54.7604 35.2333 55.317 35.9633 55.617 36.89L54.177 37.35C53.9237 36.7033 53.5204 36.2033 52.967 35.85C52.4204 35.49 51.7937 35.31 51.087 35.31C50.2937 35.31 49.637 35.4933 49.117 35.86C48.597 36.22 48.2104 36.7233 47.957 37.37C47.7037 38.0167 47.5737 38.76 47.567 39.6C47.5804 40.8933 47.8804 41.9333 48.467 42.72C49.0537 43.5 49.927 43.89 51.087 43.89C51.8204 43.89 52.4437 43.7233 52.957 43.39C53.477 43.05 53.8704 42.5567 54.137 41.91L55.617 42.35C55.217 43.31 54.6304 44.0433 53.857 44.55C53.0837 45.05 52.1604 45.3 51.087 45.3Z" fill="black"/>
</svg>
